<mxfile host="app.diagrams.net" modified="2023-03-25T23:53:02.481Z" agent="Mozilla/5.0 (Windows NT 10.0; Win64; x64) AppleWebKit/537.36 (KHTML, like Gecko) Chrome/111.0.0.0 Safari/537.36" etag="s3DrSQ2v3y1PnC1-eWvN" version="21.1.1" type="google">
  <diagram id="PM97Arz_t_PV3S8-Oa46" name="Página-1">
    <mxGraphModel grid="1" page="1" gridSize="10" guides="1" tooltips="1" connect="1" arrows="1" fold="1" pageScale="1" pageWidth="2100" pageHeight="2800" math="0" shadow="0">
      <root>
        <mxCell id="0" />
        <mxCell id="1" parent="0" />
        <mxCell id="l0qB8RH0WvTVi8cwV6Hn-8" style="edgeStyle=orthogonalEdgeStyle;curved=1;rounded=0;orthogonalLoop=1;jettySize=auto;html=1;exitX=0.5;exitY=0;exitDx=0;exitDy=0;entryX=0;entryY=0.5;entryDx=0;entryDy=0;" edge="1" parent="1" source="L4fSr0gN4SqaMzlp8B6z-12" target="pNjpQ47pzgb56b5YLkKA-45">
          <mxGeometry relative="1" as="geometry" />
        </mxCell>
        <mxCell id="xIkOduNl5AUU66lp3AHa-16" style="edgeStyle=none;rounded=0;orthogonalLoop=1;jettySize=auto;html=1;fontSize=9;exitX=1;exitY=0;exitDx=0;exitDy=0;entryX=0;entryY=0.25;entryDx=0;entryDy=0;" edge="1" parent="1" source="FWfu6WNcgX2FTxLPgsbS-2" target="xIkOduNl5AUU66lp3AHa-24">
          <mxGeometry relative="1" as="geometry">
            <mxPoint x="750" y="208.24" as="targetPoint" />
            <mxPoint x="600.98" y="208.54424000000006" as="sourcePoint" />
            <Array as="points" />
          </mxGeometry>
        </mxCell>
        <mxCell id="xIkOduNl5AUU66lp3AHa-25" value="INFORMACIÓN USUARIOS" style="edgeLabel;html=1;align=center;verticalAlign=middle;resizable=0;points=[];fontSize=11;" connectable="0" vertex="1" parent="xIkOduNl5AUU66lp3AHa-16">
          <mxGeometry x="0.074" y="1" relative="1" as="geometry">
            <mxPoint x="-7" y="1" as="offset" />
          </mxGeometry>
        </mxCell>
        <mxCell id="FWfu6WNcgX2FTxLPgsbS-2" value="GESTIONAR&amp;nbsp;&lt;br&gt;JARDÍN" style="ellipse;whiteSpace=wrap;html=1;" vertex="1" parent="1">
          <mxGeometry x="460" y="195.62" width="170" height="108.76" as="geometry" />
        </mxCell>
        <mxCell id="FWfu6WNcgX2FTxLPgsbS-9" value="0" style="text;html=1;strokeColor=none;fillColor=none;align=center;verticalAlign=middle;whiteSpace=wrap;rounded=0;" vertex="1" parent="1">
          <mxGeometry x="530" y="205.24" width="30" height="10" as="geometry" />
        </mxCell>
        <mxCell id="CnbhZ-RmkQytlQboRpyD-7" value="" style="group" connectable="0" vertex="1" parent="1">
          <mxGeometry x="1290" y="277" width="120" height="80" as="geometry" />
        </mxCell>
        <mxCell id="CnbhZ-RmkQytlQboRpyD-8" value="GESTIONAR USUARIOS" style="ellipse;whiteSpace=wrap;html=1;" vertex="1" parent="CnbhZ-RmkQytlQboRpyD-7">
          <mxGeometry width="120" height="80" as="geometry" />
        </mxCell>
        <mxCell id="CnbhZ-RmkQytlQboRpyD-9" value="1.0" style="text;html=1;strokeColor=none;fillColor=none;align=center;verticalAlign=middle;whiteSpace=wrap;rounded=0;" vertex="1" parent="CnbhZ-RmkQytlQboRpyD-7">
          <mxGeometry x="45" y="10" width="30" height="10" as="geometry" />
        </mxCell>
        <mxCell id="CnbhZ-RmkQytlQboRpyD-10" style="rounded=0;orthogonalLoop=1;jettySize=auto;html=1;exitX=0;exitY=0.5;exitDx=0;exitDy=0;edgeStyle=orthogonalEdgeStyle;curved=1;" edge="1" parent="1" source="CnbhZ-RmkQytlQboRpyD-4">
          <mxGeometry relative="1" as="geometry">
            <mxPoint x="1510" y="293.375" as="sourcePoint" />
            <mxPoint x="1420" y="307" as="targetPoint" />
            <Array as="points">
              <mxPoint x="1560" y="293" />
              <mxPoint x="1460" y="293" />
              <mxPoint x="1460" y="307" />
            </Array>
          </mxGeometry>
        </mxCell>
        <mxCell id="CnbhZ-RmkQytlQboRpyD-20" style="rounded=0;orthogonalLoop=1;jettySize=auto;html=1;fontSize=17;edgeStyle=orthogonalEdgeStyle;curved=1;exitX=0;exitY=1;exitDx=0;exitDy=0;entryX=0;entryY=0.25;entryDx=0;entryDy=0;" edge="1" parent="1">
          <mxGeometry relative="1" as="geometry">
            <mxPoint x="1200" y="433.0999999999999" as="targetPoint" />
            <Array as="points">
              <mxPoint x="1308" y="347" />
              <mxPoint x="1170" y="347" />
              <mxPoint x="1170" y="433" />
            </Array>
            <mxPoint x="1307.5735931288073" y="345.2842712474619" as="sourcePoint" />
          </mxGeometry>
        </mxCell>
        <mxCell id="CnbhZ-RmkQytlQboRpyD-22" value="" style="group" connectable="0" vertex="1" parent="1">
          <mxGeometry x="1630" y="377" width="110" height="30" as="geometry" />
        </mxCell>
        <mxCell id="CnbhZ-RmkQytlQboRpyD-23" value="" style="shape=partialRectangle;whiteSpace=wrap;html=1;left=0;right=0;fillColor=none;fontSize=24;" vertex="1" parent="CnbhZ-RmkQytlQboRpyD-22">
          <mxGeometry x="11" width="88" height="30" as="geometry" />
        </mxCell>
        <mxCell id="CnbhZ-RmkQytlQboRpyD-24" value="ACUDIENTE" style="text;html=1;strokeColor=none;fillColor=none;align=center;verticalAlign=middle;whiteSpace=wrap;rounded=0;" vertex="1" parent="CnbhZ-RmkQytlQboRpyD-22">
          <mxGeometry y="7.5" width="110.00000000000003" height="15" as="geometry" />
        </mxCell>
        <mxCell id="xIkOduNl5AUU66lp3AHa-3" style="rounded=0;orthogonalLoop=1;jettySize=auto;html=1;entryX=0;entryY=0;entryDx=0;entryDy=0;fontSize=10;exitX=0.999;exitY=0.13;exitDx=0;exitDy=0;exitPerimeter=0;" edge="1" parent="1" source="CnbhZ-RmkQytlQboRpyD-25" target="FWfu6WNcgX2FTxLPgsbS-2">
          <mxGeometry relative="1" as="geometry" />
        </mxCell>
        <mxCell id="YfIU_cfu1i6WQ_l_rjaA-1" value="&lt;font style=&quot;vertical-align: inherit;&quot;&gt;&lt;font style=&quot;vertical-align: inherit;&quot;&gt;GESTIONAR USUARIOS&lt;/font&gt;&lt;/font&gt;" style="edgeLabel;html=1;align=center;verticalAlign=middle;resizable=0;points=[];" connectable="0" vertex="1" parent="xIkOduNl5AUU66lp3AHa-3">
          <mxGeometry x="-0.1578" y="-1" relative="1" as="geometry">
            <mxPoint as="offset" />
          </mxGeometry>
        </mxCell>
        <mxCell id="xIkOduNl5AUU66lp3AHa-13" style="edgeStyle=none;rounded=0;orthogonalLoop=1;jettySize=auto;html=1;fontSize=9;exitX=1.005;exitY=0.398;exitDx=0;exitDy=0;exitPerimeter=0;entryX=-0.001;entryY=0.428;entryDx=0;entryDy=0;entryPerimeter=0;" edge="1" parent="1" source="CnbhZ-RmkQytlQboRpyD-25" target="FWfu6WNcgX2FTxLPgsbS-2">
          <mxGeometry relative="1" as="geometry">
            <mxPoint x="240" y="258" as="sourcePoint" />
            <mxPoint x="460" y="258" as="targetPoint" />
          </mxGeometry>
        </mxCell>
        <mxCell id="xIkOduNl5AUU66lp3AHa-14" value="&lt;font style=&quot;vertical-align: inherit;&quot;&gt;&lt;font style=&quot;vertical-align: inherit;&quot;&gt;SOLICITAR CUPOS&lt;/font&gt;&lt;/font&gt;" style="edgeLabel;html=1;align=center;verticalAlign=middle;resizable=0;points=[];fontSize=11;" connectable="0" vertex="1" parent="xIkOduNl5AUU66lp3AHa-13">
          <mxGeometry x="-0.2069" y="-1" relative="1" as="geometry">
            <mxPoint x="10" as="offset" />
          </mxGeometry>
        </mxCell>
        <mxCell id="CnbhZ-RmkQytlQboRpyD-25" value="&lt;font style=&quot;font-size: 12px;&quot;&gt;&lt;b&gt;USUARIOS&lt;/b&gt;&lt;/font&gt;" style="rounded=0;whiteSpace=wrap;html=1;fontSize=9;" vertex="1" parent="1">
          <mxGeometry x="40" y="200.24" width="200" height="99.76" as="geometry" />
        </mxCell>
        <mxCell id="CnbhZ-RmkQytlQboRpyD-31" value="" style="group" connectable="0" vertex="1" parent="1">
          <mxGeometry x="1770" y="257" width="120" height="110" as="geometry" />
        </mxCell>
        <mxCell id="CnbhZ-RmkQytlQboRpyD-32" value="GESTIONAR TRÁMITES" style="ellipse;whiteSpace=wrap;html=1;" vertex="1" parent="CnbhZ-RmkQytlQboRpyD-31">
          <mxGeometry width="120" height="77.19298245614036" as="geometry" />
        </mxCell>
        <mxCell id="CnbhZ-RmkQytlQboRpyD-33" value="2.0" style="text;html=1;strokeColor=none;fillColor=none;align=center;verticalAlign=middle;whiteSpace=wrap;rounded=0;" vertex="1" parent="CnbhZ-RmkQytlQboRpyD-31">
          <mxGeometry x="45" y="9.649122807017545" width="30" height="9.649122807017545" as="geometry" />
        </mxCell>
        <mxCell id="CnbhZ-RmkQytlQboRpyD-34" value="" style="edgeStyle=orthogonalEdgeStyle;rounded=0;orthogonalLoop=1;jettySize=auto;html=1;fontSize=22;curved=1;exitX=0.5;exitY=0;exitDx=0;exitDy=0;" edge="1" parent="1" source="CnbhZ-RmkQytlQboRpyD-23">
          <mxGeometry relative="1" as="geometry">
            <mxPoint x="1720" y="347" as="sourcePoint" />
            <mxPoint x="1770" y="317" as="targetPoint" />
          </mxGeometry>
        </mxCell>
        <mxCell id="CnbhZ-RmkQytlQboRpyD-37" value="" style="group" connectable="0" vertex="1" parent="1">
          <mxGeometry x="1200" y="418.76" width="110" height="38.24" as="geometry" />
        </mxCell>
        <mxCell id="CnbhZ-RmkQytlQboRpyD-38" value="" style="shape=partialRectangle;whiteSpace=wrap;html=1;left=0;right=0;fillColor=none;fontSize=24;" vertex="1" parent="CnbhZ-RmkQytlQboRpyD-37">
          <mxGeometry x="11" width="88" height="38.24" as="geometry" />
        </mxCell>
        <mxCell id="CnbhZ-RmkQytlQboRpyD-39" value="PERSONAL" style="text;html=1;strokeColor=none;fillColor=none;align=center;verticalAlign=middle;whiteSpace=wrap;rounded=0;" vertex="1" parent="CnbhZ-RmkQytlQboRpyD-37">
          <mxGeometry y="9.56" width="110.00000000000001" height="19.12" as="geometry" />
        </mxCell>
        <mxCell id="CnbhZ-RmkQytlQboRpyD-40" style="edgeStyle=orthogonalEdgeStyle;rounded=0;orthogonalLoop=1;jettySize=auto;html=1;fontSize=15;exitX=1;exitY=0.5;exitDx=0;exitDy=0;curved=1;" edge="1" parent="1">
          <mxGeometry relative="1" as="geometry">
            <mxPoint x="1310" y="441.76" as="sourcePoint" />
            <mxPoint x="1350" y="364.5" as="targetPoint" />
          </mxGeometry>
        </mxCell>
        <mxCell id="QK5G6wsZUQqB0Hkq3cQ--18" value="INFO PERSONAL" style="edgeLabel;html=1;align=center;verticalAlign=middle;resizable=0;points=[];" connectable="0" vertex="1" parent="CnbhZ-RmkQytlQboRpyD-40">
          <mxGeometry x="0.1277" y="4" relative="1" as="geometry">
            <mxPoint y="-9" as="offset" />
          </mxGeometry>
        </mxCell>
        <mxCell id="CnbhZ-RmkQytlQboRpyD-4" value="ESTUDIANTE" style="text;html=1;strokeColor=none;fillColor=none;align=center;verticalAlign=middle;whiteSpace=wrap;rounded=0;" vertex="1" parent="1">
          <mxGeometry x="1560" y="290.25" width="100.00000000000001" height="12.5" as="geometry" />
        </mxCell>
        <mxCell id="CnbhZ-RmkQytlQboRpyD-57" style="edgeStyle=orthogonalEdgeStyle;rounded=0;orthogonalLoop=1;jettySize=auto;html=1;fontSize=10;exitX=1;exitY=0.5;exitDx=0;exitDy=0;curved=1;" edge="1" parent="1" source="CnbhZ-RmkQytlQboRpyD-4">
          <mxGeometry relative="1" as="geometry">
            <mxPoint x="1770" y="277" as="targetPoint" />
            <Array as="points">
              <mxPoint x="1660" y="277" />
            </Array>
          </mxGeometry>
        </mxCell>
        <mxCell id="CnbhZ-RmkQytlQboRpyD-58" value="" style="group" connectable="0" vertex="1" parent="1">
          <mxGeometry x="1540" y="467" width="120" height="96" as="geometry" />
        </mxCell>
        <mxCell id="CnbhZ-RmkQytlQboRpyD-59" value="GESTIONAR CALENDARIO&amp;nbsp;" style="ellipse;whiteSpace=wrap;html=1;" vertex="1" parent="CnbhZ-RmkQytlQboRpyD-58">
          <mxGeometry width="120" height="80" as="geometry" />
        </mxCell>
        <mxCell id="CnbhZ-RmkQytlQboRpyD-60" value="3.0" style="text;html=1;strokeColor=none;fillColor=none;align=center;verticalAlign=middle;whiteSpace=wrap;rounded=0;" vertex="1" parent="CnbhZ-RmkQytlQboRpyD-58">
          <mxGeometry x="45" y="10" width="30" height="10" as="geometry" />
        </mxCell>
        <mxCell id="CnbhZ-RmkQytlQboRpyD-61" style="edgeStyle=orthogonalEdgeStyle;curved=1;rounded=0;orthogonalLoop=1;jettySize=auto;html=1;fontSize=10;entryX=0;entryY=0.5;entryDx=0;entryDy=0;" edge="1" parent="1" target="CnbhZ-RmkQytlQboRpyD-59">
          <mxGeometry relative="1" as="geometry">
            <mxPoint x="1270" y="467" as="sourcePoint" />
            <mxPoint x="1490" y="507" as="targetPoint" />
            <Array as="points">
              <mxPoint x="1270" y="507" />
            </Array>
          </mxGeometry>
        </mxCell>
        <mxCell id="CnbhZ-RmkQytlQboRpyD-62" style="edgeStyle=orthogonalEdgeStyle;curved=1;rounded=0;orthogonalLoop=1;jettySize=auto;html=1;entryX=0.5;entryY=0;entryDx=0;entryDy=0;fontSize=10;exitX=0.5;exitY=1;exitDx=0;exitDy=0;" edge="1" parent="1" source="CnbhZ-RmkQytlQboRpyD-23" target="CnbhZ-RmkQytlQboRpyD-59">
          <mxGeometry relative="1" as="geometry" />
        </mxCell>
        <mxCell id="CnbhZ-RmkQytlQboRpyD-65" value="" style="group" connectable="0" vertex="1" parent="1">
          <mxGeometry x="1950" y="340" width="110" height="30" as="geometry" />
        </mxCell>
        <mxCell id="CnbhZ-RmkQytlQboRpyD-66" value="" style="shape=partialRectangle;whiteSpace=wrap;html=1;left=0;right=0;fillColor=none;fontSize=24;" vertex="1" parent="CnbhZ-RmkQytlQboRpyD-65">
          <mxGeometry x="11" width="88" height="30" as="geometry" />
        </mxCell>
        <mxCell id="CnbhZ-RmkQytlQboRpyD-67" value="CITACION" style="text;html=1;strokeColor=none;fillColor=none;align=center;verticalAlign=middle;whiteSpace=wrap;rounded=0;" vertex="1" parent="CnbhZ-RmkQytlQboRpyD-65">
          <mxGeometry y="7.5" width="110.00000000000001" height="15" as="geometry" />
        </mxCell>
        <mxCell id="CnbhZ-RmkQytlQboRpyD-69" style="edgeStyle=orthogonalEdgeStyle;curved=1;rounded=0;orthogonalLoop=1;jettySize=auto;html=1;fontSize=10;entryX=0;entryY=0.25;entryDx=0;entryDy=0;exitX=0.5;exitY=1;exitDx=0;exitDy=0;" edge="1" parent="1" source="CnbhZ-RmkQytlQboRpyD-32" target="CnbhZ-RmkQytlQboRpyD-67">
          <mxGeometry relative="1" as="geometry">
            <mxPoint x="1950" y="325" as="targetPoint" />
            <Array as="points">
              <mxPoint x="1830" y="351" />
              <mxPoint x="1870" y="351" />
              <mxPoint x="1870" y="350" />
              <mxPoint x="1940" y="350" />
              <mxPoint x="1940" y="351" />
            </Array>
            <mxPoint x="1820" y="380" as="sourcePoint" />
          </mxGeometry>
        </mxCell>
        <mxCell id="CnbhZ-RmkQytlQboRpyD-75" style="edgeStyle=orthogonalEdgeStyle;curved=1;rounded=0;orthogonalLoop=1;jettySize=auto;html=1;fontSize=10;entryX=0;entryY=0;entryDx=0;entryDy=0;" edge="1" parent="1" source="CnbhZ-RmkQytlQboRpyD-3" target="CnbhZ-RmkQytlQboRpyD-59">
          <mxGeometry relative="1" as="geometry">
            <mxPoint x="1560" y="465" as="targetPoint" />
          </mxGeometry>
        </mxCell>
        <mxCell id="CnbhZ-RmkQytlQboRpyD-3" value="" style="shape=partialRectangle;whiteSpace=wrap;html=1;left=0;right=0;fillColor=none;fontSize=24;" vertex="1" parent="1">
          <mxGeometry x="1570" y="284" width="80" height="25" as="geometry" />
        </mxCell>
        <mxCell id="CnbhZ-RmkQytlQboRpyD-83" value="" style="group" connectable="0" vertex="1" parent="1">
          <mxGeometry x="622.5" y="740" width="120" height="80" as="geometry" />
        </mxCell>
        <mxCell id="CnbhZ-RmkQytlQboRpyD-84" value="&lt;font style=&quot;vertical-align: inherit;&quot;&gt;&lt;font style=&quot;vertical-align: inherit;&quot;&gt;REGISTRAR&lt;br&gt;PERSONAL&lt;br&gt;&lt;/font&gt;&lt;/font&gt;" style="ellipse;whiteSpace=wrap;html=1;" vertex="1" parent="CnbhZ-RmkQytlQboRpyD-83">
          <mxGeometry width="120" height="80" as="geometry" />
        </mxCell>
        <mxCell id="CnbhZ-RmkQytlQboRpyD-85" value="1.2" style="text;html=1;strokeColor=none;fillColor=none;align=center;verticalAlign=middle;whiteSpace=wrap;rounded=0;" vertex="1" parent="CnbhZ-RmkQytlQboRpyD-83">
          <mxGeometry x="45" y="10" width="30" height="10" as="geometry" />
        </mxCell>
        <mxCell id="CnbhZ-RmkQytlQboRpyD-86" value="" style="group;verticalAlign=top;" connectable="0" vertex="1" parent="1">
          <mxGeometry x="130" y="740" width="120" height="80" as="geometry" />
        </mxCell>
        <mxCell id="CnbhZ-RmkQytlQboRpyD-87" value="&lt;font style=&quot;vertical-align: inherit;&quot;&gt;&lt;font style=&quot;vertical-align: inherit;&quot;&gt;&lt;font style=&quot;vertical-align: inherit;&quot;&gt;&lt;/font&gt;&lt;br&gt;&lt;/font&gt;&lt;/font&gt;&lt;font style=&quot;vertical-align: inherit;&quot;&gt;&lt;font style=&quot;vertical-align: inherit;&quot;&gt;REGISTRAR&lt;br&gt;&lt;/font&gt;&lt;/font&gt;&lt;font style=&quot;vertical-align: inherit;&quot;&gt;&lt;font style=&quot;vertical-align: inherit;&quot;&gt;ESTUDIANTES&lt;/font&gt;&lt;/font&gt;" style="ellipse;whiteSpace=wrap;html=1;" vertex="1" parent="CnbhZ-RmkQytlQboRpyD-86">
          <mxGeometry width="120" height="80" as="geometry" />
        </mxCell>
        <mxCell id="CnbhZ-RmkQytlQboRpyD-88" value="1.1" style="text;html=1;strokeColor=none;fillColor=none;align=center;verticalAlign=middle;whiteSpace=wrap;rounded=0;" vertex="1" parent="CnbhZ-RmkQytlQboRpyD-86">
          <mxGeometry x="45" y="16" width="30" height="10" as="geometry" />
        </mxCell>
        <mxCell id="QK5G6wsZUQqB0Hkq3cQ--4" value="" style="edgeStyle=orthogonalEdgeStyle;rounded=0;orthogonalLoop=1;jettySize=auto;html=1;curved=1;" edge="1" parent="1" source="QK5G6wsZUQqB0Hkq3cQ--2" target="CnbhZ-RmkQytlQboRpyD-87">
          <mxGeometry relative="1" as="geometry" />
        </mxCell>
        <mxCell id="GfI7PO5L6H_3CAIzGEhE-2" value="INFO&lt;br&gt;ESTUDIANTE" style="edgeLabel;html=1;align=center;verticalAlign=middle;resizable=0;points=[];" connectable="0" vertex="1" parent="QK5G6wsZUQqB0Hkq3cQ--4">
          <mxGeometry x="-0.1387" y="-5" relative="1" as="geometry">
            <mxPoint y="2" as="offset" />
          </mxGeometry>
        </mxCell>
        <mxCell id="QK5G6wsZUQqB0Hkq3cQ--2" value="ESTUDIANTE" style="text;html=1;strokeColor=none;fillColor=none;align=center;verticalAlign=middle;whiteSpace=wrap;rounded=0;" vertex="1" parent="1">
          <mxGeometry x="20" y="691.25" width="100.00000000000001" height="12.5" as="geometry" />
        </mxCell>
        <mxCell id="YfIU_cfu1i6WQ_l_rjaA-22" style="edgeStyle=orthogonalEdgeStyle;curved=1;rounded=0;orthogonalLoop=1;jettySize=auto;html=1;fontSize=11;entryX=0;entryY=0.5;entryDx=0;entryDy=0;exitX=0.5;exitY=0;exitDx=0;exitDy=0;" edge="1" parent="1" source="QK5G6wsZUQqB0Hkq3cQ--3" target="YfIU_cfu1i6WQ_l_rjaA-14">
          <mxGeometry relative="1" as="geometry">
            <mxPoint x="430" y="530" as="targetPoint" />
            <Array as="points">
              <mxPoint x="70" y="490" />
            </Array>
          </mxGeometry>
        </mxCell>
        <mxCell id="YfIU_cfu1i6WQ_l_rjaA-23" value="&lt;font style=&quot;vertical-align: inherit;&quot;&gt;&lt;font style=&quot;vertical-align: inherit;&quot;&gt;INFO&lt;br&gt;ESTUDIANTE&lt;br&gt;&lt;/font&gt;&lt;/font&gt;" style="edgeLabel;html=1;align=center;verticalAlign=middle;resizable=0;points=[];fontSize=11;" connectable="0" vertex="1" parent="YfIU_cfu1i6WQ_l_rjaA-22">
          <mxGeometry x="0.0638" y="3" relative="1" as="geometry">
            <mxPoint x="34" y="46" as="offset" />
          </mxGeometry>
        </mxCell>
        <mxCell id="QK5G6wsZUQqB0Hkq3cQ--3" value="" style="shape=partialRectangle;whiteSpace=wrap;html=1;left=0;right=0;fillColor=none;fontSize=24;" vertex="1" parent="1">
          <mxGeometry x="30" y="685" width="80" height="25" as="geometry" />
        </mxCell>
        <mxCell id="QK5G6wsZUQqB0Hkq3cQ--5" value="" style="group" connectable="0" vertex="1" parent="1">
          <mxGeometry x="732.5" y="670" width="110" height="30" as="geometry" />
        </mxCell>
        <mxCell id="QK5G6wsZUQqB0Hkq3cQ--6" value="" style="shape=partialRectangle;whiteSpace=wrap;html=1;left=0;right=0;fillColor=none;fontSize=24;" vertex="1" parent="QK5G6wsZUQqB0Hkq3cQ--5">
          <mxGeometry x="11" width="88" height="30" as="geometry" />
        </mxCell>
        <mxCell id="QK5G6wsZUQqB0Hkq3cQ--7" value="PERSONAL" style="text;html=1;strokeColor=none;fillColor=none;align=center;verticalAlign=middle;whiteSpace=wrap;rounded=0;" vertex="1" parent="QK5G6wsZUQqB0Hkq3cQ--5">
          <mxGeometry y="7.5" width="110.00000000000001" height="15" as="geometry" />
        </mxCell>
        <mxCell id="QK5G6wsZUQqB0Hkq3cQ--8" style="edgeStyle=orthogonalEdgeStyle;curved=1;rounded=0;orthogonalLoop=1;jettySize=auto;html=1;entryX=0.5;entryY=0;entryDx=0;entryDy=0;" edge="1" parent="1" source="QK5G6wsZUQqB0Hkq3cQ--7" target="CnbhZ-RmkQytlQboRpyD-84">
          <mxGeometry relative="1" as="geometry">
            <Array as="points">
              <mxPoint x="682.5" y="685" />
            </Array>
          </mxGeometry>
        </mxCell>
        <mxCell id="GfI7PO5L6H_3CAIzGEhE-1" value="INFO&lt;br&gt;PERSONAL" style="edgeLabel;html=1;align=center;verticalAlign=middle;resizable=0;points=[];" connectable="0" vertex="1" parent="QK5G6wsZUQqB0Hkq3cQ--8">
          <mxGeometry x="0.181" y="9" relative="1" as="geometry">
            <mxPoint x="1" y="9" as="offset" />
          </mxGeometry>
        </mxCell>
        <mxCell id="QK5G6wsZUQqB0Hkq3cQ--19" value="INFO&lt;br&gt;&amp;nbsp;ESTUDIANTE" style="edgeLabel;html=1;align=center;verticalAlign=middle;resizable=0;points=[];rotation=0;" connectable="0" vertex="1" parent="1">
          <mxGeometry x="1500.001800601344" y="296.49770834629396" as="geometry" />
        </mxCell>
        <mxCell id="QK5G6wsZUQqB0Hkq3cQ--20" value="INFO&lt;br&gt;&amp;nbsp;ESTUDIANTE" style="edgeLabel;html=1;align=center;verticalAlign=middle;resizable=0;points=[];rotation=0;" connectable="0" vertex="1" parent="1">
          <mxGeometry x="1710.001800601344" y="276.99770834629396" as="geometry" />
        </mxCell>
        <mxCell id="QK5G6wsZUQqB0Hkq3cQ--22" value="INFO&lt;br&gt;ACUDIENTE" style="edgeLabel;html=1;align=center;verticalAlign=middle;resizable=0;points=[];rotation=0;" connectable="0" vertex="1" parent="1">
          <mxGeometry x="1730.001800601344" y="352.74770834629396" as="geometry" />
        </mxCell>
        <mxCell id="QK5G6wsZUQqB0Hkq3cQ--24" value="INFO&lt;br&gt;&amp;nbsp;ESTUDIANTE" style="edgeLabel;html=1;align=center;verticalAlign=middle;resizable=0;points=[];rotation=0;" connectable="0" vertex="1" parent="1">
          <mxGeometry x="1580.001800601344" y="391.99770834629396" as="geometry" />
        </mxCell>
        <mxCell id="QK5G6wsZUQqB0Hkq3cQ--25" value="INFO &lt;br&gt;CITACIONES" style="edgeLabel;html=1;align=center;verticalAlign=middle;resizable=0;points=[];rotation=0;" connectable="0" vertex="1" parent="1">
          <mxGeometry x="1875.001800601344" y="349.99770834629396" as="geometry">
            <mxPoint x="2" y="5" as="offset" />
          </mxGeometry>
        </mxCell>
        <mxCell id="pNjpQ47pzgb56b5YLkKA-1" style="edgeStyle=orthogonalEdgeStyle;rounded=0;orthogonalLoop=1;jettySize=auto;html=1;curved=1;" edge="1" parent="1" source="CnbhZ-RmkQytlQboRpyD-8">
          <mxGeometry relative="1" as="geometry">
            <mxPoint x="1600" y="267" as="targetPoint" />
            <Array as="points">
              <mxPoint x="1350" y="237" />
              <mxPoint x="1600" y="237" />
            </Array>
          </mxGeometry>
        </mxCell>
        <mxCell id="pNjpQ47pzgb56b5YLkKA-2" value="INFO&lt;br&gt;ACUDIENTE" style="edgeLabel;html=1;align=center;verticalAlign=middle;resizable=0;points=[];rotation=0;" connectable="0" vertex="1" parent="1">
          <mxGeometry x="1740.001800601344" y="363.99770834629396" as="geometry">
            <mxPoint x="-102" y="72" as="offset" />
          </mxGeometry>
        </mxCell>
        <mxCell id="pNjpQ47pzgb56b5YLkKA-3" value="&lt;font style=&quot;font-size: 15px;&quot;&gt;NIVEL 0: DIAGRAMA DE CONTEXTO&lt;/font&gt;" style="rounded=1;whiteSpace=wrap;html=1;" vertex="1" parent="1">
          <mxGeometry x="200" y="79.99999999999999" width="286" height="40" as="geometry" />
        </mxCell>
        <mxCell id="pNjpQ47pzgb56b5YLkKA-4" value="&lt;span style=&quot;font-size: 15px;&quot;&gt;NIVEL 1 :GESTIONAR JARDÍN&lt;/span&gt;" style="rounded=1;whiteSpace=wrap;html=1;" vertex="1" parent="1">
          <mxGeometry x="1200" y="80" width="230" height="40" as="geometry" />
        </mxCell>
        <mxCell id="pNjpQ47pzgb56b5YLkKA-5" value="&lt;span style=&quot;font-size: 15px;&quot;&gt;NIVEL 2: PROCESO 1.0 GESTIONAR USUARIOS&lt;/span&gt;" style="rounded=1;whiteSpace=wrap;html=1;" vertex="1" parent="1">
          <mxGeometry x="200" y="361" width="350" height="40" as="geometry" />
        </mxCell>
        <mxCell id="pNjpQ47pzgb56b5YLkKA-6" value="&lt;span style=&quot;font-size: 15px;&quot;&gt;NIVEL 2: PROCESO 2.0 GESTIONAR TRÁMITES&lt;/span&gt;" style="rounded=1;whiteSpace=wrap;html=1;" vertex="1" parent="1">
          <mxGeometry x="200" y="1158" width="350" height="40" as="geometry" />
        </mxCell>
        <mxCell id="pNjpQ47pzgb56b5YLkKA-13" style="edgeStyle=orthogonalEdgeStyle;curved=1;rounded=0;orthogonalLoop=1;jettySize=auto;html=1;exitX=1;exitY=0;exitDx=0;exitDy=0;entryX=0;entryY=0.5;entryDx=0;entryDy=0;fontSize=15;" edge="1" parent="1" source="CnbhZ-RmkQytlQboRpyD-87" target="ASO6ONYbp6WQh1iD9IR5-1">
          <mxGeometry relative="1" as="geometry">
            <mxPoint x="264.9999999999998" y="640" as="targetPoint" />
          </mxGeometry>
        </mxCell>
        <mxCell id="ASO6ONYbp6WQh1iD9IR5-5" value="&lt;font style=&quot;font-size: 10px;&quot;&gt;ESTUDIATES&lt;br&gt;RESGISTRADOS&lt;/font&gt;" style="edgeLabel;html=1;align=center;verticalAlign=middle;resizable=0;points=[];fontSize=15;" connectable="0" vertex="1" parent="pNjpQ47pzgb56b5YLkKA-13">
          <mxGeometry x="0.2131" y="6" relative="1" as="geometry">
            <mxPoint y="20" as="offset" />
          </mxGeometry>
        </mxCell>
        <mxCell id="pNjpQ47pzgb56b5YLkKA-14" style="edgeStyle=orthogonalEdgeStyle;curved=1;rounded=0;orthogonalLoop=1;jettySize=auto;html=1;exitX=0;exitY=0;exitDx=0;exitDy=0;fontSize=15;" edge="1" parent="1" source="CnbhZ-RmkQytlQboRpyD-84">
          <mxGeometry relative="1" as="geometry">
            <Array as="points">
              <mxPoint x="653" y="752" />
              <mxPoint x="653" y="700" />
            </Array>
            <mxPoint x="480" y="700" as="targetPoint" />
          </mxGeometry>
        </mxCell>
        <mxCell id="ASO6ONYbp6WQh1iD9IR5-6" value="&lt;font style=&quot;font-size: 10px;&quot;&gt;PERSONAL&amp;nbsp;&lt;br&gt;REGISTRADO&lt;/font&gt;" style="edgeLabel;html=1;align=center;verticalAlign=middle;resizable=0;points=[];fontSize=15;" connectable="0" vertex="1" parent="pNjpQ47pzgb56b5YLkKA-14">
          <mxGeometry x="0.105" y="1" relative="1" as="geometry">
            <mxPoint as="offset" />
          </mxGeometry>
        </mxCell>
        <mxCell id="L4fSr0gN4SqaMzlp8B6z-10" value="&lt;span style=&quot;font-size: 15px;&quot;&gt;NIVEL 2: PROCESO 3.0 GESTIONAR CALENDARIO EVENTO&lt;/span&gt;" style="rounded=1;whiteSpace=wrap;html=1;" vertex="1" parent="1">
          <mxGeometry x="180" y="1560" width="450" height="40" as="geometry" />
        </mxCell>
        <mxCell id="L4fSr0gN4SqaMzlp8B6z-11" value="" style="group" connectable="0" vertex="1" parent="1">
          <mxGeometry x="194" y="1720.25" width="120" height="80" as="geometry" />
        </mxCell>
        <mxCell id="L4fSr0gN4SqaMzlp8B6z-12" value="REALIZAR&lt;br&gt;EVENTO" style="ellipse;whiteSpace=wrap;html=1;" vertex="1" parent="L4fSr0gN4SqaMzlp8B6z-11">
          <mxGeometry width="120" height="80" as="geometry" />
        </mxCell>
        <mxCell id="L4fSr0gN4SqaMzlp8B6z-13" value="3.1" style="text;html=1;strokeColor=none;fillColor=none;align=center;verticalAlign=middle;whiteSpace=wrap;rounded=0;" vertex="1" parent="L4fSr0gN4SqaMzlp8B6z-11">
          <mxGeometry x="45" y="10" width="30" height="10" as="geometry" />
        </mxCell>
        <mxCell id="pNjpQ47pzgb56b5YLkKA-43" value="" style="group" connectable="0" vertex="1" parent="1">
          <mxGeometry x="400" y="1641" width="110" height="30" as="geometry" />
        </mxCell>
        <mxCell id="pNjpQ47pzgb56b5YLkKA-44" value="" style="shape=partialRectangle;whiteSpace=wrap;html=1;left=0;right=0;fillColor=none;fontSize=24;" vertex="1" parent="pNjpQ47pzgb56b5YLkKA-43">
          <mxGeometry x="11" width="88" height="30" as="geometry" />
        </mxCell>
        <mxCell id="pNjpQ47pzgb56b5YLkKA-45" value="CALENDARIO&amp;nbsp;" style="text;html=1;strokeColor=none;fillColor=none;align=center;verticalAlign=middle;whiteSpace=wrap;rounded=0;" vertex="1" parent="pNjpQ47pzgb56b5YLkKA-43">
          <mxGeometry x="-1" y="7.5" width="110.00000000000001" height="15" as="geometry" />
        </mxCell>
        <mxCell id="pNjpQ47pzgb56b5YLkKA-49" value="INFO&lt;br&gt;EVENTO" style="edgeLabel;html=1;align=center;verticalAlign=middle;resizable=0;points=[];rotation=0;" connectable="0" vertex="1" parent="1">
          <mxGeometry x="410.00180060134403" y="1599.997708346294" as="geometry">
            <mxPoint x="-102" y="72" as="offset" />
          </mxGeometry>
        </mxCell>
        <mxCell id="pNjpQ47pzgb56b5YLkKA-95" value="&lt;span style=&quot;font-size: 15px;&quot;&gt;NIVEL 3: PROCESO 3.1 CREAR EVENTO&lt;/span&gt;" style="rounded=1;whiteSpace=wrap;html=1;" vertex="1" parent="1">
          <mxGeometry x="1170" y="799.9999999999999" width="330" height="40" as="geometry" />
        </mxCell>
        <mxCell id="l0qB8RH0WvTVi8cwV6Hn-16" value="CURSO" style="text;html=1;strokeColor=none;fillColor=none;align=center;verticalAlign=middle;whiteSpace=wrap;rounded=0;" vertex="1" parent="1">
          <mxGeometry x="-60" y="756.25" width="100.00000000000001" height="12.5" as="geometry" />
        </mxCell>
        <mxCell id="l0qB8RH0WvTVi8cwV6Hn-18" style="edgeStyle=orthogonalEdgeStyle;curved=1;rounded=0;orthogonalLoop=1;jettySize=auto;html=1;exitX=1;exitY=0.5;exitDx=0;exitDy=0;" edge="1" parent="1" source="l0qB8RH0WvTVi8cwV6Hn-17" target="CnbhZ-RmkQytlQboRpyD-87">
          <mxGeometry relative="1" as="geometry" />
        </mxCell>
        <mxCell id="l0qB8RH0WvTVi8cwV6Hn-20" value="INFO&lt;br&gt;CURSO" style="edgeLabel;html=1;align=center;verticalAlign=middle;resizable=0;points=[];" connectable="0" vertex="1" parent="l0qB8RH0WvTVi8cwV6Hn-18">
          <mxGeometry x="-0.3875" y="-3" relative="1" as="geometry">
            <mxPoint x="14" y="3" as="offset" />
          </mxGeometry>
        </mxCell>
        <mxCell id="l0qB8RH0WvTVi8cwV6Hn-17" value="" style="shape=partialRectangle;whiteSpace=wrap;html=1;left=0;right=0;fillColor=none;fontSize=24;" vertex="1" parent="1">
          <mxGeometry x="-50" y="750" width="80" height="25" as="geometry" />
        </mxCell>
        <mxCell id="l0qB8RH0WvTVi8cwV6Hn-21" value="CURSO" style="text;html=1;strokeColor=none;fillColor=none;align=center;verticalAlign=middle;whiteSpace=wrap;rounded=0;" vertex="1" parent="1">
          <mxGeometry x="832.5" y="731.25" width="100.00000000000001" height="12.5" as="geometry" />
        </mxCell>
        <mxCell id="l0qB8RH0WvTVi8cwV6Hn-23" style="edgeStyle=orthogonalEdgeStyle;curved=1;rounded=0;orthogonalLoop=1;jettySize=auto;html=1;exitX=0;exitY=0.5;exitDx=0;exitDy=0;entryX=1;entryY=0.5;entryDx=0;entryDy=0;" edge="1" parent="1" source="l0qB8RH0WvTVi8cwV6Hn-22" target="CnbhZ-RmkQytlQboRpyD-84">
          <mxGeometry relative="1" as="geometry" />
        </mxCell>
        <mxCell id="l0qB8RH0WvTVi8cwV6Hn-24" value="INFO&amp;nbsp;&lt;br&gt;CURSO" style="edgeLabel;html=1;align=center;verticalAlign=middle;resizable=0;points=[];" connectable="0" vertex="1" parent="l0qB8RH0WvTVi8cwV6Hn-23">
          <mxGeometry x="-0.1509" y="7" relative="1" as="geometry">
            <mxPoint y="1" as="offset" />
          </mxGeometry>
        </mxCell>
        <mxCell id="l0qB8RH0WvTVi8cwV6Hn-22" value="" style="shape=partialRectangle;whiteSpace=wrap;html=1;left=0;right=0;fillColor=none;fontSize=24;" vertex="1" parent="1">
          <mxGeometry x="842.5" y="725" width="80" height="25" as="geometry" />
        </mxCell>
        <mxCell id="l0qB8RH0WvTVi8cwV6Hn-28" value="CURSO" style="text;html=1;strokeColor=none;fillColor=none;align=center;verticalAlign=middle;whiteSpace=wrap;rounded=0;" vertex="1" parent="1">
          <mxGeometry x="1255" y="174.25" width="100.00000000000001" height="12.5" as="geometry" />
        </mxCell>
        <mxCell id="l0qB8RH0WvTVi8cwV6Hn-31" style="edgeStyle=orthogonalEdgeStyle;curved=1;rounded=0;orthogonalLoop=1;jettySize=auto;html=1;exitX=1;exitY=0.5;exitDx=0;exitDy=0;entryX=0;entryY=0;entryDx=0;entryDy=0;" edge="1" parent="1" source="l0qB8RH0WvTVi8cwV6Hn-29" target="CnbhZ-RmkQytlQboRpyD-8">
          <mxGeometry relative="1" as="geometry" />
        </mxCell>
        <mxCell id="l0qB8RH0WvTVi8cwV6Hn-32" value="INFO&lt;br&gt;CURSO" style="edgeLabel;html=1;align=center;verticalAlign=middle;resizable=0;points=[];" connectable="0" vertex="1" parent="l0qB8RH0WvTVi8cwV6Hn-31">
          <mxGeometry x="-0.2375" y="-8" relative="1" as="geometry">
            <mxPoint x="-18" y="9" as="offset" />
          </mxGeometry>
        </mxCell>
        <mxCell id="l0qB8RH0WvTVi8cwV6Hn-29" value="" style="shape=partialRectangle;whiteSpace=wrap;html=1;left=0;right=0;fillColor=none;fontSize=24;" vertex="1" parent="1">
          <mxGeometry x="1265" y="168" width="80" height="25" as="geometry" />
        </mxCell>
        <mxCell id="YfIU_cfu1i6WQ_l_rjaA-11" style="edgeStyle=orthogonalEdgeStyle;curved=1;rounded=0;orthogonalLoop=1;jettySize=auto;html=1;entryX=0.5;entryY=1;entryDx=0;entryDy=0;fontSize=11;endArrow=none;endFill=0;startArrow=classic;startFill=1;" edge="1" parent="1" source="l0qB8RH0WvTVi8cwV6Hn-72" target="CnbhZ-RmkQytlQboRpyD-59">
          <mxGeometry relative="1" as="geometry">
            <Array as="points">
              <mxPoint x="1649" y="599" />
              <mxPoint x="1600" y="599" />
            </Array>
          </mxGeometry>
        </mxCell>
        <mxCell id="YfIU_cfu1i6WQ_l_rjaA-12" value="&lt;font style=&quot;vertical-align: inherit;&quot;&gt;&lt;font style=&quot;vertical-align: inherit;&quot;&gt;INFO&lt;br&gt;EVENTOS&lt;br&gt;&lt;/font&gt;&lt;/font&gt;" style="edgeLabel;html=1;align=center;verticalAlign=middle;resizable=0;points=[];fontSize=11;" connectable="0" vertex="1" parent="YfIU_cfu1i6WQ_l_rjaA-11">
          <mxGeometry x="0.4201" y="-7" relative="1" as="geometry">
            <mxPoint x="13" y="9" as="offset" />
          </mxGeometry>
        </mxCell>
        <mxCell id="l0qB8RH0WvTVi8cwV6Hn-72" value="EVENTOS" style="shape=partialRectangle;whiteSpace=wrap;html=1;left=0;right=0;fillColor=none;fontSize=12;" vertex="1" parent="1">
          <mxGeometry x="1600" y="650" width="97.5" height="28" as="geometry" />
        </mxCell>
        <mxCell id="l0qB8RH0WvTVi8cwV6Hn-76" value="INFO PERSONAL" style="edgeLabel;html=1;align=center;verticalAlign=middle;resizable=0;points=[];" connectable="0" vertex="1" parent="1">
          <mxGeometry x="1390" y="500.0000199999949" as="geometry" />
        </mxCell>
        <mxCell id="l0qB8RH0WvTVi8cwV6Hn-78" value="ACTIVIDADES" style="text;html=1;strokeColor=none;fillColor=none;align=center;verticalAlign=middle;whiteSpace=wrap;rounded=0;" vertex="1" parent="1">
          <mxGeometry x="110" y="1892" width="100.00000000000001" height="12.5" as="geometry" />
        </mxCell>
        <mxCell id="l0qB8RH0WvTVi8cwV6Hn-81" value="" style="edgeStyle=orthogonalEdgeStyle;curved=1;rounded=0;orthogonalLoop=1;jettySize=auto;html=1;entryX=0;entryY=1;entryDx=0;entryDy=0;" edge="1" parent="1" source="l0qB8RH0WvTVi8cwV6Hn-79" target="L4fSr0gN4SqaMzlp8B6z-12">
          <mxGeometry relative="1" as="geometry" />
        </mxCell>
        <mxCell id="l0qB8RH0WvTVi8cwV6Hn-82" value="INFO &lt;br&gt;ACTIVIDADES" style="edgeLabel;html=1;align=center;verticalAlign=middle;resizable=0;points=[];" connectable="0" vertex="1" parent="l0qB8RH0WvTVi8cwV6Hn-81">
          <mxGeometry x="-0.403" y="-1" relative="1" as="geometry">
            <mxPoint x="23" y="-3" as="offset" />
          </mxGeometry>
        </mxCell>
        <mxCell id="l0qB8RH0WvTVi8cwV6Hn-79" value="" style="shape=partialRectangle;whiteSpace=wrap;html=1;left=0;right=0;fillColor=none;fontSize=24;" vertex="1" parent="1">
          <mxGeometry x="111.25" y="1884.25" width="97.5" height="28" as="geometry" />
        </mxCell>
        <mxCell id="l0qB8RH0WvTVi8cwV6Hn-83" value="" style="group" connectable="0" vertex="1" parent="1">
          <mxGeometry x="389" y="1912.25" width="110" height="30" as="geometry" />
        </mxCell>
        <mxCell id="l0qB8RH0WvTVi8cwV6Hn-84" value="" style="shape=partialRectangle;whiteSpace=wrap;html=1;left=0;right=0;fillColor=none;fontSize=24;" vertex="1" parent="l0qB8RH0WvTVi8cwV6Hn-83">
          <mxGeometry x="11" width="88" height="30" as="geometry" />
        </mxCell>
        <mxCell id="l0qB8RH0WvTVi8cwV6Hn-85" value="ACUDIENTE" style="text;html=1;strokeColor=none;fillColor=none;align=center;verticalAlign=middle;whiteSpace=wrap;rounded=0;" vertex="1" parent="l0qB8RH0WvTVi8cwV6Hn-83">
          <mxGeometry y="7.5" width="110.00000000000003" height="15" as="geometry" />
        </mxCell>
        <mxCell id="l0qB8RH0WvTVi8cwV6Hn-86" value="" style="group" connectable="0" vertex="1" parent="1">
          <mxGeometry x="393" y="1849.25" width="110" height="30" as="geometry" />
        </mxCell>
        <mxCell id="l0qB8RH0WvTVi8cwV6Hn-87" value="" style="shape=partialRectangle;whiteSpace=wrap;html=1;left=0;right=0;fillColor=none;fontSize=24;" vertex="1" parent="l0qB8RH0WvTVi8cwV6Hn-86">
          <mxGeometry x="11" width="88" height="30" as="geometry" />
        </mxCell>
        <mxCell id="l0qB8RH0WvTVi8cwV6Hn-88" value="PERSONAL" style="text;html=1;strokeColor=none;fillColor=none;align=center;verticalAlign=middle;whiteSpace=wrap;rounded=0;" vertex="1" parent="l0qB8RH0WvTVi8cwV6Hn-86">
          <mxGeometry y="7.5" width="110.00000000000001" height="15" as="geometry" />
        </mxCell>
        <mxCell id="l0qB8RH0WvTVi8cwV6Hn-91" style="edgeStyle=orthogonalEdgeStyle;curved=1;rounded=0;orthogonalLoop=1;jettySize=auto;html=1;exitX=0.5;exitY=0;exitDx=0;exitDy=0;" edge="1" parent="1" source="l0qB8RH0WvTVi8cwV6Hn-84" target="L4fSr0gN4SqaMzlp8B6z-12">
          <mxGeometry relative="1" as="geometry">
            <Array as="points">
              <mxPoint x="444" y="1891" />
              <mxPoint x="254" y="1891" />
            </Array>
          </mxGeometry>
        </mxCell>
        <mxCell id="l0qB8RH0WvTVi8cwV6Hn-93" value="INFO&lt;br&gt;ACUDIENTE" style="edgeLabel;html=1;align=center;verticalAlign=middle;resizable=0;points=[];" connectable="0" vertex="1" parent="l0qB8RH0WvTVi8cwV6Hn-91">
          <mxGeometry x="-0.123" y="-4" relative="1" as="geometry">
            <mxPoint as="offset" />
          </mxGeometry>
        </mxCell>
        <mxCell id="l0qB8RH0WvTVi8cwV6Hn-92" style="edgeStyle=orthogonalEdgeStyle;curved=1;rounded=0;orthogonalLoop=1;jettySize=auto;html=1;exitX=0.5;exitY=0;exitDx=0;exitDy=0;entryX=0.733;entryY=0.988;entryDx=0;entryDy=0;entryPerimeter=0;" edge="1" parent="1" source="l0qB8RH0WvTVi8cwV6Hn-87" target="L4fSr0gN4SqaMzlp8B6z-12">
          <mxGeometry relative="1" as="geometry" />
        </mxCell>
        <mxCell id="l0qB8RH0WvTVi8cwV6Hn-94" value="INFO &lt;br&gt;PERSONAL" style="edgeLabel;html=1;align=center;verticalAlign=middle;resizable=0;points=[];" connectable="0" vertex="1" parent="l0qB8RH0WvTVi8cwV6Hn-92">
          <mxGeometry x="-0.2798" y="1" relative="1" as="geometry">
            <mxPoint as="offset" />
          </mxGeometry>
        </mxCell>
        <mxCell id="j3uDoGHFEFbZuuikmRDn-36" style="edgeStyle=orthogonalEdgeStyle;curved=1;rounded=0;orthogonalLoop=1;jettySize=auto;html=1;exitX=0.5;exitY=1;exitDx=0;exitDy=0;entryX=1;entryY=0.75;entryDx=0;entryDy=0;" edge="1" parent="1">
          <mxGeometry relative="1" as="geometry">
            <Array as="points">
              <mxPoint x="1640" y="1459" />
              <mxPoint x="1930" y="1459" />
              <mxPoint x="1930" y="1293" />
            </Array>
            <mxPoint x="1640" y="1429" as="sourcePoint" />
          </mxGeometry>
        </mxCell>
        <mxCell id="j3uDoGHFEFbZuuikmRDn-37" value="PERSONAL&lt;br&gt;ACTUALIZADO" style="edgeLabel;html=1;align=center;verticalAlign=middle;resizable=0;points=[];" connectable="0" vertex="1" parent="j3uDoGHFEFbZuuikmRDn-36">
          <mxGeometry x="-0.2676" y="3" relative="1" as="geometry">
            <mxPoint as="offset" />
          </mxGeometry>
        </mxCell>
        <mxCell id="xIkOduNl5AUU66lp3AHa-20" style="edgeStyle=none;rounded=0;orthogonalLoop=1;jettySize=auto;html=1;fontSize=9;exitX=1;exitY=1;exitDx=0;exitDy=0;entryX=-0.006;entryY=0.932;entryDx=0;entryDy=0;entryPerimeter=0;" edge="1" parent="1" source="FWfu6WNcgX2FTxLPgsbS-2" target="xIkOduNl5AUU66lp3AHa-24">
          <mxGeometry relative="1" as="geometry">
            <mxPoint x="799.9999999999998" y="293" as="targetPoint" />
            <mxPoint x="630.6800000000001" y="290.50739999999996" as="sourcePoint" />
          </mxGeometry>
        </mxCell>
        <mxCell id="xIkOduNl5AUU66lp3AHa-30" value="GENERAR CITA" style="edgeLabel;html=1;align=center;verticalAlign=middle;resizable=0;points=[];fontSize=11;" connectable="0" vertex="1" parent="xIkOduNl5AUU66lp3AHa-20">
          <mxGeometry x="-0.2448" y="-1" relative="1" as="geometry">
            <mxPoint x="22" y="-1" as="offset" />
          </mxGeometry>
        </mxCell>
        <mxCell id="xIkOduNl5AUU66lp3AHa-24" value="&lt;font style=&quot;font-size: 12px;&quot;&gt;&lt;b&gt;USUARIOS&lt;/b&gt;&lt;/font&gt;" style="rounded=0;whiteSpace=wrap;html=1;fontSize=9;" vertex="1" parent="1">
          <mxGeometry x="800" y="193.24" width="200" height="99.76" as="geometry" />
        </mxCell>
        <mxCell id="YfIU_cfu1i6WQ_l_rjaA-13" value="" style="group" connectable="0" vertex="1" parent="1">
          <mxGeometry x="350" y="450" width="120" height="80" as="geometry" />
        </mxCell>
        <mxCell id="YfIU_cfu1i6WQ_l_rjaA-14" value="&lt;font style=&quot;vertical-align: inherit;&quot;&gt;&lt;font style=&quot;vertical-align: inherit;&quot;&gt;&lt;font style=&quot;vertical-align: inherit;&quot;&gt;&lt;font style=&quot;vertical-align: inherit;&quot;&gt;CAMBIAR &lt;br&gt;ESTADO&lt;br&gt;&lt;/font&gt;&lt;/font&gt;&lt;/font&gt;&lt;/font&gt;" style="ellipse;whiteSpace=wrap;html=1;" vertex="1" parent="YfIU_cfu1i6WQ_l_rjaA-13">
          <mxGeometry width="120" height="80" as="geometry" />
        </mxCell>
        <mxCell id="YfIU_cfu1i6WQ_l_rjaA-15" value="&lt;font style=&quot;vertical-align: inherit;&quot;&gt;&lt;font style=&quot;vertical-align: inherit;&quot;&gt;1.3&lt;/font&gt;&lt;/font&gt;" style="text;html=1;strokeColor=none;fillColor=none;align=center;verticalAlign=middle;whiteSpace=wrap;rounded=0;" vertex="1" parent="YfIU_cfu1i6WQ_l_rjaA-13">
          <mxGeometry x="45" y="10" width="30" height="10" as="geometry" />
        </mxCell>
        <mxCell id="YfIU_cfu1i6WQ_l_rjaA-16" value="" style="group" connectable="0" vertex="1" parent="1">
          <mxGeometry x="370" y="888.75" width="120" height="80" as="geometry" />
        </mxCell>
        <mxCell id="YfIU_cfu1i6WQ_l_rjaA-17" value="&lt;font style=&quot;vertical-align: inherit;&quot;&gt;&lt;font style=&quot;vertical-align: inherit;&quot;&gt;MODIFICAR USUARIOS&lt;br&gt;&lt;/font&gt;&lt;/font&gt;" style="ellipse;whiteSpace=wrap;html=1;" vertex="1" parent="YfIU_cfu1i6WQ_l_rjaA-16">
          <mxGeometry width="120" height="80" as="geometry" />
        </mxCell>
        <mxCell id="YfIU_cfu1i6WQ_l_rjaA-18" value="&lt;font style=&quot;vertical-align: inherit;&quot;&gt;&lt;font style=&quot;vertical-align: inherit;&quot;&gt;1.4&lt;/font&gt;&lt;/font&gt;" style="text;html=1;strokeColor=none;fillColor=none;align=center;verticalAlign=middle;whiteSpace=wrap;rounded=0;" vertex="1" parent="YfIU_cfu1i6WQ_l_rjaA-16">
          <mxGeometry x="45" y="10" width="30" height="10" as="geometry" />
        </mxCell>
        <mxCell id="YfIU_cfu1i6WQ_l_rjaA-27" style="edgeStyle=orthogonalEdgeStyle;curved=1;rounded=0;orthogonalLoop=1;jettySize=auto;html=1;entryX=1;entryY=0.5;entryDx=0;entryDy=0;fontSize=11;exitX=0.5;exitY=0;exitDx=0;exitDy=0;" edge="1" parent="1" source="QK5G6wsZUQqB0Hkq3cQ--6" target="YfIU_cfu1i6WQ_l_rjaA-14">
          <mxGeometry relative="1" as="geometry">
            <mxPoint x="625" y="670" as="sourcePoint" />
            <mxPoint x="441.52" y="640.1600000000001" as="targetPoint" />
            <Array as="points">
              <mxPoint x="788" y="490" />
            </Array>
          </mxGeometry>
        </mxCell>
        <mxCell id="YfIU_cfu1i6WQ_l_rjaA-28" value="&lt;font style=&quot;vertical-align: inherit;&quot;&gt;&lt;font style=&quot;vertical-align: inherit;&quot;&gt;INFO&lt;br&gt;PERSONAL&lt;br&gt;&lt;/font&gt;&lt;/font&gt;" style="edgeLabel;html=1;align=center;verticalAlign=middle;resizable=0;points=[];fontSize=11;" connectable="0" vertex="1" parent="YfIU_cfu1i6WQ_l_rjaA-27">
          <mxGeometry x="0.1419" relative="1" as="geometry">
            <mxPoint x="27" y="57" as="offset" />
          </mxGeometry>
        </mxCell>
        <mxCell id="YfIU_cfu1i6WQ_l_rjaA-44" style="edgeStyle=orthogonalEdgeStyle;curved=1;rounded=0;orthogonalLoop=1;jettySize=auto;html=1;entryX=1;entryY=0.5;entryDx=0;entryDy=0;fontSize=12;exitX=0.5;exitY=0;exitDx=0;exitDy=0;" edge="1" parent="1" source="YfIU_cfu1i6WQ_l_rjaA-36" target="YfIU_cfu1i6WQ_l_rjaA-17">
          <mxGeometry relative="1" as="geometry">
            <Array as="points">
              <mxPoint x="551" y="929" />
            </Array>
          </mxGeometry>
        </mxCell>
        <mxCell id="YfIU_cfu1i6WQ_l_rjaA-45" value="&lt;font style=&quot;vertical-align: inherit;&quot;&gt;&lt;font style=&quot;vertical-align: inherit;&quot;&gt;INFO&lt;br&gt;PERSONAL&lt;br&gt;&lt;/font&gt;&lt;/font&gt;" style="edgeLabel;html=1;align=center;verticalAlign=middle;resizable=0;points=[];fontSize=12;" connectable="0" vertex="1" parent="YfIU_cfu1i6WQ_l_rjaA-44">
          <mxGeometry x="0.0375" y="2" relative="1" as="geometry">
            <mxPoint x="-4" y="28" as="offset" />
          </mxGeometry>
        </mxCell>
        <mxCell id="YfIU_cfu1i6WQ_l_rjaA-36" value="&lt;font style=&quot;vertical-align: inherit; font-size: 12px;&quot;&gt;&lt;font style=&quot;vertical-align: inherit; font-size: 12px;&quot;&gt;PERSONAL&lt;/font&gt;&lt;/font&gt;" style="shape=partialRectangle;whiteSpace=wrap;html=1;left=0;right=0;fillColor=none;fontSize=12;" vertex="1" parent="1">
          <mxGeometry x="507" y="999" width="88" height="30" as="geometry" />
        </mxCell>
        <mxCell id="YfIU_cfu1i6WQ_l_rjaA-43" style="edgeStyle=orthogonalEdgeStyle;curved=1;rounded=0;orthogonalLoop=1;jettySize=auto;html=1;entryX=0.5;entryY=1;entryDx=0;entryDy=0;fontSize=12;exitX=0.5;exitY=1;exitDx=0;exitDy=0;" edge="1" parent="1" source="YfIU_cfu1i6WQ_l_rjaA-37" target="YfIU_cfu1i6WQ_l_rjaA-17">
          <mxGeometry relative="1" as="geometry">
            <Array as="points">
              <mxPoint x="260" y="1000" />
              <mxPoint x="430" y="1000" />
            </Array>
          </mxGeometry>
        </mxCell>
        <mxCell id="YfIU_cfu1i6WQ_l_rjaA-46" value="&lt;font style=&quot;vertical-align: inherit;&quot;&gt;&lt;font style=&quot;vertical-align: inherit;&quot;&gt;INFO&lt;br&gt;ESTUDIANTE&lt;br&gt;&lt;/font&gt;&lt;/font&gt;" style="edgeLabel;html=1;align=center;verticalAlign=middle;resizable=0;points=[];fontSize=12;" connectable="0" vertex="1" parent="YfIU_cfu1i6WQ_l_rjaA-43">
          <mxGeometry x="-0.0071" y="-2" relative="1" as="geometry">
            <mxPoint as="offset" />
          </mxGeometry>
        </mxCell>
        <mxCell id="YfIU_cfu1i6WQ_l_rjaA-37" value="&lt;font style=&quot;vertical-align: inherit; font-size: 12px;&quot;&gt;&lt;font style=&quot;vertical-align: inherit; font-size: 12px;&quot;&gt;ESTUDIANTE&lt;/font&gt;&lt;/font&gt;" style="shape=partialRectangle;whiteSpace=wrap;html=1;left=0;right=0;fillColor=none;fontSize=12;" vertex="1" parent="1">
          <mxGeometry x="216" y="910" width="88" height="30" as="geometry" />
        </mxCell>
        <mxCell id="YfIU_cfu1i6WQ_l_rjaA-41" value="&lt;font style=&quot;vertical-align: inherit;&quot;&gt;&lt;font style=&quot;vertical-align: inherit;&quot;&gt;PERSONAL&lt;br&gt;ACTUALIZADO&lt;br&gt;&lt;/font&gt;&lt;/font&gt;" style="edgeStyle=orthogonalEdgeStyle;curved=1;rounded=0;orthogonalLoop=1;jettySize=auto;html=1;fontSize=12;entryX=0.75;entryY=1;entryDx=0;entryDy=0;" edge="1" parent="1" source="YfIU_cfu1i6WQ_l_rjaA-17" target="ASO6ONYbp6WQh1iD9IR5-1">
          <mxGeometry relative="1" as="geometry" />
        </mxCell>
        <mxCell id="YfIU_cfu1i6WQ_l_rjaA-42" value="&lt;font style=&quot;vertical-align: inherit;&quot;&gt;&lt;font style=&quot;vertical-align: inherit;&quot;&gt;ESTUDIANTE&lt;br&gt;ACTUALIZADO&lt;br&gt;&lt;/font&gt;&lt;/font&gt;" style="edgeStyle=orthogonalEdgeStyle;curved=1;rounded=0;orthogonalLoop=1;jettySize=auto;html=1;fontSize=12;" edge="1" parent="1" source="YfIU_cfu1i6WQ_l_rjaA-17">
          <mxGeometry x="-0.0786" y="10" relative="1" as="geometry">
            <mxPoint x="390" y="720" as="targetPoint" />
            <Array as="points">
              <mxPoint x="340" y="929" />
              <mxPoint x="340" y="805" />
              <mxPoint x="390" y="805" />
              <mxPoint x="390" y="721" />
            </Array>
            <mxPoint as="offset" />
          </mxGeometry>
        </mxCell>
        <mxCell id="HS66bA9COVbjvonR8Qez-12" style="edgeStyle=orthogonalEdgeStyle;curved=1;rounded=0;orthogonalLoop=1;jettySize=auto;html=1;exitX=0.75;exitY=1;exitDx=0;exitDy=0;entryX=0;entryY=0;entryDx=0;entryDy=0;" edge="1" parent="1" source="YfIU_cfu1i6WQ_l_rjaA-59" target="7hv6oszFaFQT4d_ed0gU-21">
          <mxGeometry relative="1" as="geometry" />
        </mxCell>
        <mxCell id="z8-KbePBWn15m4s615-u-10" style="rounded=0;orthogonalLoop=1;jettySize=auto;html=1;exitX=1;exitY=0.5;exitDx=0;exitDy=0;entryX=0;entryY=0;entryDx=0;entryDy=0;edgeStyle=orthogonalEdgeStyle;curved=1;" edge="1" parent="1" source="YfIU_cfu1i6WQ_l_rjaA-59" target="z8-KbePBWn15m4s615-u-8">
          <mxGeometry relative="1" as="geometry" />
        </mxCell>
        <mxCell id="YfIU_cfu1i6WQ_l_rjaA-59" value="&lt;font style=&quot;vertical-align: inherit; font-size: 12px;&quot;&gt;&lt;font style=&quot;vertical-align: inherit; font-size: 12px;&quot;&gt;&lt;font style=&quot;vertical-align: inherit;&quot;&gt;&lt;font style=&quot;vertical-align: inherit;&quot;&gt;ESTUDIANTE&lt;/font&gt;&lt;/font&gt;&lt;/font&gt;&lt;/font&gt;" style="shape=partialRectangle;whiteSpace=wrap;html=1;left=0;right=0;fillColor=none;fontSize=12;" vertex="1" parent="1">
          <mxGeometry x="479.5000000000001" y="1250" width="80" height="25" as="geometry" />
        </mxCell>
        <mxCell id="yfKugQGFmToWZsmdqOhB-5" style="edgeStyle=orthogonalEdgeStyle;curved=1;rounded=0;orthogonalLoop=1;jettySize=auto;html=1;exitX=1;exitY=0.5;exitDx=0;exitDy=0;startArrow=none;startFill=0;endArrow=classic;endFill=1;entryX=0;entryY=0.5;entryDx=0;entryDy=0;" edge="1" parent="1" source="CnbhZ-RmkQytlQboRpyD-32" target="7hv6oszFaFQT4d_ed0gU-20">
          <mxGeometry relative="1" as="geometry">
            <mxPoint x="2050" y="270" as="targetPoint" />
          </mxGeometry>
        </mxCell>
        <mxCell id="yfKugQGFmToWZsmdqOhB-6" value="&lt;font style=&quot;vertical-align: inherit;&quot;&gt;&lt;font style=&quot;vertical-align: inherit;&quot;&gt;SOLICITUD&lt;br&gt;&lt;/font&gt;&lt;/font&gt;&lt;font style=&quot;vertical-align: inherit;&quot;&gt;&lt;font style=&quot;vertical-align: inherit;&quot;&gt;CUPOS&lt;/font&gt;&lt;/font&gt;" style="edgeLabel;html=1;align=center;verticalAlign=middle;resizable=0;points=[];" connectable="0" vertex="1" parent="yfKugQGFmToWZsmdqOhB-5">
          <mxGeometry x="0.2226" y="-5" relative="1" as="geometry">
            <mxPoint x="-6" y="21" as="offset" />
          </mxGeometry>
        </mxCell>
        <mxCell id="ASO6ONYbp6WQh1iD9IR5-1" value="" style="shape=partialRectangle;whiteSpace=wrap;html=1;left=0;right=0;fillColor=none;fontSize=24;" vertex="1" parent="1">
          <mxGeometry x="380" y="691.25" width="95" height="30" as="geometry" />
        </mxCell>
        <mxCell id="ASO6ONYbp6WQh1iD9IR5-2" value="&lt;font style=&quot;font-size: 15px;&quot;&gt;USUARIOS&lt;/font&gt;" style="text;html=1;strokeColor=none;fillColor=none;align=center;verticalAlign=middle;whiteSpace=wrap;rounded=0;strokeWidth=5;" vertex="1" parent="1">
          <mxGeometry x="397.5" y="691.25" width="60" height="30" as="geometry" />
        </mxCell>
        <mxCell id="ASO6ONYbp6WQh1iD9IR5-3" style="edgeStyle=orthogonalEdgeStyle;rounded=0;orthogonalLoop=1;jettySize=auto;html=1;exitX=0.5;exitY=1;exitDx=0;exitDy=0;entryX=0.5;entryY=0;entryDx=0;entryDy=0;fontSize=15;curved=1;" edge="1" parent="1" source="YfIU_cfu1i6WQ_l_rjaA-14" target="ASO6ONYbp6WQh1iD9IR5-2">
          <mxGeometry relative="1" as="geometry" />
        </mxCell>
        <mxCell id="ASO6ONYbp6WQh1iD9IR5-4" value="&lt;font style=&quot;font-size: 10px;&quot;&gt;USUARIOS&amp;nbsp;&lt;br&gt;ACTUALIZADOS&lt;/font&gt;" style="edgeLabel;html=1;align=center;verticalAlign=middle;resizable=0;points=[];fontSize=15;" connectable="0" vertex="1" parent="ASO6ONYbp6WQh1iD9IR5-3">
          <mxGeometry x="-0.3326" y="-1" relative="1" as="geometry">
            <mxPoint x="15" y="20" as="offset" />
          </mxGeometry>
        </mxCell>
        <mxCell id="ASO6ONYbp6WQh1iD9IR5-8" value="" style="group" connectable="0" vertex="1" parent="1">
          <mxGeometry x="529.5" y="1442.42" width="110.00000000000003" height="30" as="geometry" />
        </mxCell>
        <mxCell id="ASO6ONYbp6WQh1iD9IR5-9" value="" style="shape=partialRectangle;whiteSpace=wrap;html=1;left=0;right=0;fillColor=none;fontSize=24;" vertex="1" parent="ASO6ONYbp6WQh1iD9IR5-8">
          <mxGeometry x="11" width="88" height="30" as="geometry" />
        </mxCell>
        <mxCell id="ASO6ONYbp6WQh1iD9IR5-10" value="ACUDIENTE" style="text;html=1;strokeColor=none;fillColor=none;align=center;verticalAlign=middle;whiteSpace=wrap;rounded=0;" vertex="1" parent="ASO6ONYbp6WQh1iD9IR5-8">
          <mxGeometry y="7.5" width="110.00000000000003" height="15" as="geometry" />
        </mxCell>
        <mxCell id="ASO6ONYbp6WQh1iD9IR5-65" value="" style="group" connectable="0" vertex="1" parent="1">
          <mxGeometry x="1730" y="962.38" width="120" height="80" as="geometry" />
        </mxCell>
        <mxCell id="ASO6ONYbp6WQh1iD9IR5-66" value="ELIMINAR &lt;br&gt;EVENTO" style="ellipse;whiteSpace=wrap;html=1;" vertex="1" parent="ASO6ONYbp6WQh1iD9IR5-65">
          <mxGeometry width="120" height="80" as="geometry" />
        </mxCell>
        <mxCell id="ASO6ONYbp6WQh1iD9IR5-67" value="3.1.3" style="text;html=1;strokeColor=none;fillColor=none;align=center;verticalAlign=middle;whiteSpace=wrap;rounded=0;" vertex="1" parent="ASO6ONYbp6WQh1iD9IR5-65">
          <mxGeometry x="45" y="10" width="30" height="10" as="geometry" />
        </mxCell>
        <mxCell id="ASO6ONYbp6WQh1iD9IR5-68" value="" style="group" connectable="0" vertex="1" parent="1">
          <mxGeometry x="1285" y="1202.38" width="120" height="80" as="geometry" />
        </mxCell>
        <mxCell id="ASO6ONYbp6WQh1iD9IR5-69" value="MODIFICAR EVENTO" style="ellipse;whiteSpace=wrap;html=1;" vertex="1" parent="ASO6ONYbp6WQh1iD9IR5-68">
          <mxGeometry width="120" height="80" as="geometry" />
        </mxCell>
        <mxCell id="ASO6ONYbp6WQh1iD9IR5-70" value="3.1.2" style="text;html=1;strokeColor=none;fillColor=none;align=center;verticalAlign=middle;whiteSpace=wrap;rounded=0;" vertex="1" parent="ASO6ONYbp6WQh1iD9IR5-68">
          <mxGeometry x="45" y="10" width="30" height="10" as="geometry" />
        </mxCell>
        <mxCell id="ASO6ONYbp6WQh1iD9IR5-71" value="" style="group" connectable="0" vertex="1" parent="1">
          <mxGeometry x="1280" y="902.38" width="120" height="80" as="geometry" />
        </mxCell>
        <mxCell id="ASO6ONYbp6WQh1iD9IR5-72" value="CREAR&amp;nbsp;&lt;br&gt;EVENTO" style="ellipse;whiteSpace=wrap;html=1;" vertex="1" parent="ASO6ONYbp6WQh1iD9IR5-71">
          <mxGeometry width="120" height="80" as="geometry" />
        </mxCell>
        <mxCell id="ASO6ONYbp6WQh1iD9IR5-73" value="3.1.1" style="text;html=1;strokeColor=none;fillColor=none;align=center;verticalAlign=middle;whiteSpace=wrap;rounded=0;" vertex="1" parent="ASO6ONYbp6WQh1iD9IR5-71">
          <mxGeometry x="45" y="10" width="30" height="10" as="geometry" />
        </mxCell>
        <mxCell id="ASO6ONYbp6WQh1iD9IR5-74" value="EVENTOS" style="text;html=1;strokeColor=none;fillColor=none;align=center;verticalAlign=middle;whiteSpace=wrap;rounded=0;" vertex="1" parent="1">
          <mxGeometry x="1170" y="1044.08" width="100.00000000000001" height="12.5" as="geometry" />
        </mxCell>
        <mxCell id="ASO6ONYbp6WQh1iD9IR5-77" style="edgeStyle=orthogonalEdgeStyle;curved=1;rounded=0;orthogonalLoop=1;jettySize=auto;html=1;exitX=0.5;exitY=0;exitDx=0;exitDy=0;entryX=0;entryY=0.5;entryDx=0;entryDy=0;fontSize=10;" edge="1" parent="1" source="ASO6ONYbp6WQh1iD9IR5-76" target="ASO6ONYbp6WQh1iD9IR5-72">
          <mxGeometry relative="1" as="geometry" />
        </mxCell>
        <mxCell id="ASO6ONYbp6WQh1iD9IR5-89" style="edgeStyle=orthogonalEdgeStyle;curved=1;rounded=0;orthogonalLoop=1;jettySize=auto;html=1;exitX=0.5;exitY=1;exitDx=0;exitDy=0;entryX=0;entryY=0.5;entryDx=0;entryDy=0;fontSize=10;" edge="1" parent="1" source="ASO6ONYbp6WQh1iD9IR5-76" target="ASO6ONYbp6WQh1iD9IR5-69">
          <mxGeometry relative="1" as="geometry" />
        </mxCell>
        <mxCell id="ASO6ONYbp6WQh1iD9IR5-76" value="" style="shape=partialRectangle;whiteSpace=wrap;html=1;left=0;right=0;fillColor=none;fontSize=24;" vertex="1" parent="1">
          <mxGeometry x="1190" y="1036.33" width="60" height="28" as="geometry" />
        </mxCell>
        <mxCell id="ASO6ONYbp6WQh1iD9IR5-75" value="INFO &lt;br&gt;ACTIVIDADES" style="edgeLabel;html=1;align=center;verticalAlign=middle;resizable=0;points=[];" connectable="0" vertex="1" parent="1">
          <mxGeometry x="1225" y="992.3800000000002" as="geometry" />
        </mxCell>
        <mxCell id="ASO6ONYbp6WQh1iD9IR5-78" value="" style="group" connectable="0" vertex="1" parent="1">
          <mxGeometry x="1290" y="1062.38" width="110" height="30" as="geometry" />
        </mxCell>
        <mxCell id="ASO6ONYbp6WQh1iD9IR5-79" value="" style="shape=partialRectangle;whiteSpace=wrap;html=1;left=0;right=0;fillColor=none;fontSize=24;" vertex="1" parent="ASO6ONYbp6WQh1iD9IR5-78">
          <mxGeometry x="11" width="88" height="30" as="geometry" />
        </mxCell>
        <mxCell id="ASO6ONYbp6WQh1iD9IR5-80" value="ACUDIENTE" style="text;html=1;strokeColor=none;fillColor=none;align=center;verticalAlign=middle;whiteSpace=wrap;rounded=0;" vertex="1" parent="ASO6ONYbp6WQh1iD9IR5-78">
          <mxGeometry y="7.5" width="110.00000000000003" height="15" as="geometry" />
        </mxCell>
        <mxCell id="ASO6ONYbp6WQh1iD9IR5-81" style="edgeStyle=orthogonalEdgeStyle;curved=1;rounded=0;orthogonalLoop=1;jettySize=auto;html=1;exitX=0.5;exitY=0;exitDx=0;exitDy=0;entryX=0.5;entryY=1;entryDx=0;entryDy=0;fontSize=10;" edge="1" parent="1" source="ASO6ONYbp6WQh1iD9IR5-79" target="ASO6ONYbp6WQh1iD9IR5-72">
          <mxGeometry relative="1" as="geometry" />
        </mxCell>
        <mxCell id="ASO6ONYbp6WQh1iD9IR5-82" value="INFO&lt;br&gt;ACUDIENTE" style="edgeLabel;html=1;align=center;verticalAlign=middle;resizable=0;points=[];" connectable="0" vertex="1" parent="1">
          <mxGeometry x="1340" y="1022.38" as="geometry" />
        </mxCell>
        <mxCell id="ASO6ONYbp6WQh1iD9IR5-84" value="" style="group" connectable="0" vertex="1" parent="1">
          <mxGeometry x="1410" y="1042.38" width="110" height="30" as="geometry" />
        </mxCell>
        <mxCell id="ASO6ONYbp6WQh1iD9IR5-85" value="" style="shape=partialRectangle;whiteSpace=wrap;html=1;left=0;right=0;fillColor=none;fontSize=24;" vertex="1" parent="ASO6ONYbp6WQh1iD9IR5-84">
          <mxGeometry x="11" width="88" height="30" as="geometry" />
        </mxCell>
        <mxCell id="ASO6ONYbp6WQh1iD9IR5-86" value="PERSONAL" style="text;html=1;strokeColor=none;fillColor=none;align=center;verticalAlign=middle;whiteSpace=wrap;rounded=0;" vertex="1" parent="ASO6ONYbp6WQh1iD9IR5-84">
          <mxGeometry y="7.5" width="110.00000000000001" height="15" as="geometry" />
        </mxCell>
        <mxCell id="ASO6ONYbp6WQh1iD9IR5-88" style="edgeStyle=orthogonalEdgeStyle;curved=1;rounded=0;orthogonalLoop=1;jettySize=auto;html=1;exitX=0.5;exitY=0;exitDx=0;exitDy=0;entryX=1;entryY=0.5;entryDx=0;entryDy=0;fontSize=10;" edge="1" parent="1" source="ASO6ONYbp6WQh1iD9IR5-85" target="ASO6ONYbp6WQh1iD9IR5-72">
          <mxGeometry relative="1" as="geometry" />
        </mxCell>
        <mxCell id="ASO6ONYbp6WQh1iD9IR5-87" value="INFO &lt;br&gt;PERSONAL" style="edgeLabel;html=1;align=center;verticalAlign=middle;resizable=0;points=[];" connectable="0" vertex="1" parent="1">
          <mxGeometry x="1464.9999999999998" y="972.3800000000002" as="geometry">
            <mxPoint x="-9" y="-1" as="offset" />
          </mxGeometry>
        </mxCell>
        <mxCell id="ASO6ONYbp6WQh1iD9IR5-90" style="edgeStyle=orthogonalEdgeStyle;curved=1;rounded=0;orthogonalLoop=1;jettySize=auto;html=1;exitX=0.5;exitY=1;exitDx=0;exitDy=0;entryX=0.5;entryY=0;entryDx=0;entryDy=0;fontSize=10;" edge="1" parent="1" source="ASO6ONYbp6WQh1iD9IR5-79" target="ASO6ONYbp6WQh1iD9IR5-69">
          <mxGeometry relative="1" as="geometry" />
        </mxCell>
        <mxCell id="ASO6ONYbp6WQh1iD9IR5-92" style="edgeStyle=orthogonalEdgeStyle;curved=1;rounded=0;orthogonalLoop=1;jettySize=auto;html=1;exitX=0.5;exitY=1;exitDx=0;exitDy=0;entryX=1;entryY=0.5;entryDx=0;entryDy=0;fontSize=10;" edge="1" parent="1" source="ASO6ONYbp6WQh1iD9IR5-85" target="ASO6ONYbp6WQh1iD9IR5-69">
          <mxGeometry relative="1" as="geometry" />
        </mxCell>
        <mxCell id="ASO6ONYbp6WQh1iD9IR5-93" value="INFO &lt;br&gt;ACTIVIDADES" style="edgeLabel;html=1;align=center;verticalAlign=middle;resizable=0;points=[];" connectable="0" vertex="1" parent="1">
          <mxGeometry x="1225" y="1144.13" as="geometry" />
        </mxCell>
        <mxCell id="ASO6ONYbp6WQh1iD9IR5-94" value="INFO&lt;br&gt;ACUDIENTE" style="edgeLabel;html=1;align=center;verticalAlign=middle;resizable=0;points=[];" connectable="0" vertex="1" parent="1">
          <mxGeometry x="1350" y="1144.13" as="geometry" />
        </mxCell>
        <mxCell id="ASO6ONYbp6WQh1iD9IR5-95" value="INFO &lt;br&gt;PERSONAL" style="edgeLabel;html=1;align=center;verticalAlign=middle;resizable=0;points=[];" connectable="0" vertex="1" parent="1">
          <mxGeometry x="1469.9999999999998" y="1112.38" as="geometry">
            <mxPoint x="-9" y="-1" as="offset" />
          </mxGeometry>
        </mxCell>
        <mxCell id="ASO6ONYbp6WQh1iD9IR5-100" value="" style="group" connectable="0" vertex="1" parent="1">
          <mxGeometry x="1540" y="1052.38" width="110" height="30" as="geometry" />
        </mxCell>
        <mxCell id="ASO6ONYbp6WQh1iD9IR5-101" value="" style="shape=partialRectangle;whiteSpace=wrap;html=1;left=0;right=0;fillColor=none;fontSize=24;" vertex="1" parent="ASO6ONYbp6WQh1iD9IR5-100">
          <mxGeometry x="11" width="88" height="30" as="geometry" />
        </mxCell>
        <mxCell id="ASO6ONYbp6WQh1iD9IR5-102" value="CALENDARIO&amp;nbsp;" style="text;html=1;strokeColor=none;fillColor=none;align=center;verticalAlign=middle;whiteSpace=wrap;rounded=0;" vertex="1" parent="ASO6ONYbp6WQh1iD9IR5-100">
          <mxGeometry y="7.5" width="110.00000000000001" height="15" as="geometry" />
        </mxCell>
        <mxCell id="ASO6ONYbp6WQh1iD9IR5-103" style="edgeStyle=orthogonalEdgeStyle;curved=1;rounded=0;orthogonalLoop=1;jettySize=auto;html=1;exitX=0.5;exitY=1;exitDx=0;exitDy=0;entryX=0.5;entryY=1;entryDx=0;entryDy=0;fontSize=10;" edge="1" parent="1" source="ASO6ONYbp6WQh1iD9IR5-69" target="ASO6ONYbp6WQh1iD9IR5-101">
          <mxGeometry relative="1" as="geometry" />
        </mxCell>
        <mxCell id="ASO6ONYbp6WQh1iD9IR5-107" value="EVENTO&lt;br&gt;MODIFICADO" style="edgeLabel;html=1;align=center;verticalAlign=middle;resizable=0;points=[];fontSize=10;" connectable="0" vertex="1" parent="ASO6ONYbp6WQh1iD9IR5-103">
          <mxGeometry x="-0.0164" y="38" relative="1" as="geometry">
            <mxPoint as="offset" />
          </mxGeometry>
        </mxCell>
        <mxCell id="ASO6ONYbp6WQh1iD9IR5-105" style="edgeStyle=orthogonalEdgeStyle;curved=1;rounded=0;orthogonalLoop=1;jettySize=auto;html=1;exitX=0.5;exitY=0;exitDx=0;exitDy=0;entryX=0.5;entryY=0;entryDx=0;entryDy=0;fontSize=10;" edge="1" parent="1" source="ASO6ONYbp6WQh1iD9IR5-72" target="ASO6ONYbp6WQh1iD9IR5-101">
          <mxGeometry relative="1" as="geometry" />
        </mxCell>
        <mxCell id="ASO6ONYbp6WQh1iD9IR5-106" value="EVENTO&amp;nbsp;&lt;br&gt;CREADO" style="edgeLabel;html=1;align=center;verticalAlign=middle;resizable=0;points=[];fontSize=10;" connectable="0" vertex="1" parent="ASO6ONYbp6WQh1iD9IR5-105">
          <mxGeometry x="-0.069" y="-5" relative="1" as="geometry">
            <mxPoint as="offset" />
          </mxGeometry>
        </mxCell>
        <mxCell id="ASO6ONYbp6WQh1iD9IR5-108" style="edgeStyle=orthogonalEdgeStyle;curved=1;rounded=0;orthogonalLoop=1;jettySize=auto;html=1;fontSize=10;" edge="1" parent="1" source="ASO6ONYbp6WQh1iD9IR5-102" target="ASO6ONYbp6WQh1iD9IR5-66">
          <mxGeometry relative="1" as="geometry" />
        </mxCell>
        <mxCell id="ASO6ONYbp6WQh1iD9IR5-109" value="INFO&lt;br&gt;EVENTO" style="edgeLabel;html=1;align=center;verticalAlign=middle;resizable=0;points=[];fontSize=10;" connectable="0" vertex="1" parent="ASO6ONYbp6WQh1iD9IR5-108">
          <mxGeometry x="-0.3405" y="1" relative="1" as="geometry">
            <mxPoint x="16" y="1" as="offset" />
          </mxGeometry>
        </mxCell>
        <mxCell id="ASO6ONYbp6WQh1iD9IR5-110" style="edgeStyle=orthogonalEdgeStyle;curved=1;rounded=0;orthogonalLoop=1;jettySize=auto;html=1;exitX=0.5;exitY=0;exitDx=0;exitDy=0;entryX=0.75;entryY=0;entryDx=0;entryDy=0;fontSize=10;" edge="1" parent="1" source="ASO6ONYbp6WQh1iD9IR5-66" target="ASO6ONYbp6WQh1iD9IR5-101">
          <mxGeometry relative="1" as="geometry" />
        </mxCell>
        <mxCell id="ASO6ONYbp6WQh1iD9IR5-111" value="EVENTO&amp;nbsp;&lt;br&gt;ELIMINADO" style="edgeLabel;html=1;align=center;verticalAlign=middle;resizable=0;points=[];fontSize=10;" connectable="0" vertex="1" parent="ASO6ONYbp6WQh1iD9IR5-110">
          <mxGeometry x="-0.0588" y="6" relative="1" as="geometry">
            <mxPoint as="offset" />
          </mxGeometry>
        </mxCell>
        <mxCell id="ASO6ONYbp6WQh1iD9IR5-112" value="&lt;span style=&quot;font-size: 15px;&quot;&gt;NIVEL 3: PROCESO 2.2 CREAR CITA&lt;/span&gt;" style="rounded=1;whiteSpace=wrap;html=1;" vertex="1" parent="1">
          <mxGeometry x="1171.25" y="1362.38" width="330" height="40" as="geometry" />
        </mxCell>
        <mxCell id="ASO6ONYbp6WQh1iD9IR5-113" value="" style="group" connectable="0" vertex="1" parent="1">
          <mxGeometry x="983" y="1522.38" width="120" height="80" as="geometry" />
        </mxCell>
        <mxCell id="ASO6ONYbp6WQh1iD9IR5-114" value="ELIMINAR &lt;br&gt;CITACIÓN" style="ellipse;whiteSpace=wrap;html=1;" vertex="1" parent="ASO6ONYbp6WQh1iD9IR5-113">
          <mxGeometry width="120" height="80" as="geometry" />
        </mxCell>
        <mxCell id="ASO6ONYbp6WQh1iD9IR5-115" value="2.2.3" style="text;html=1;strokeColor=none;fillColor=none;align=center;verticalAlign=middle;whiteSpace=wrap;rounded=0;" vertex="1" parent="ASO6ONYbp6WQh1iD9IR5-113">
          <mxGeometry x="45" y="10" width="30" height="10" as="geometry" />
        </mxCell>
        <mxCell id="ASO6ONYbp6WQh1iD9IR5-116" value="" style="group" connectable="0" vertex="1" parent="1">
          <mxGeometry x="1325" y="1762.38" width="120" height="80" as="geometry" />
        </mxCell>
        <mxCell id="ASO6ONYbp6WQh1iD9IR5-117" value="MODIFICAR &lt;br&gt;CITACIÓN" style="ellipse;whiteSpace=wrap;html=1;" vertex="1" parent="ASO6ONYbp6WQh1iD9IR5-116">
          <mxGeometry width="120" height="80" as="geometry" />
        </mxCell>
        <mxCell id="ASO6ONYbp6WQh1iD9IR5-118" value="2.2.2" style="text;html=1;strokeColor=none;fillColor=none;align=center;verticalAlign=middle;whiteSpace=wrap;rounded=0;" vertex="1" parent="ASO6ONYbp6WQh1iD9IR5-116">
          <mxGeometry x="45" y="10" width="30" height="10" as="geometry" />
        </mxCell>
        <mxCell id="ASO6ONYbp6WQh1iD9IR5-119" value="" style="group" connectable="0" vertex="1" parent="1">
          <mxGeometry x="1320" y="1462.38" width="120" height="80" as="geometry" />
        </mxCell>
        <mxCell id="ASO6ONYbp6WQh1iD9IR5-120" value="CREAR&amp;nbsp;&lt;br&gt;CITACIÓN" style="ellipse;whiteSpace=wrap;html=1;" vertex="1" parent="ASO6ONYbp6WQh1iD9IR5-119">
          <mxGeometry width="120" height="80" as="geometry" />
        </mxCell>
        <mxCell id="ASO6ONYbp6WQh1iD9IR5-121" value="2.2.1" style="text;html=1;strokeColor=none;fillColor=none;align=center;verticalAlign=middle;whiteSpace=wrap;rounded=0;" vertex="1" parent="ASO6ONYbp6WQh1iD9IR5-119">
          <mxGeometry x="45" y="10" width="30" height="10" as="geometry" />
        </mxCell>
        <mxCell id="ASO6ONYbp6WQh1iD9IR5-122" value="CITACION" style="text;html=1;strokeColor=none;fillColor=none;align=center;verticalAlign=middle;whiteSpace=wrap;rounded=0;" vertex="1" parent="1">
          <mxGeometry x="1210" y="1604.08" width="100.00000000000001" height="12.5" as="geometry" />
        </mxCell>
        <mxCell id="ASO6ONYbp6WQh1iD9IR5-123" style="edgeStyle=orthogonalEdgeStyle;curved=1;rounded=0;orthogonalLoop=1;jettySize=auto;html=1;exitX=0.5;exitY=0;exitDx=0;exitDy=0;entryX=0;entryY=0.5;entryDx=0;entryDy=0;fontSize=10;endArrow=none;endFill=0;startArrow=classic;startFill=1;" edge="1" parent="1" source="ASO6ONYbp6WQh1iD9IR5-125" target="ASO6ONYbp6WQh1iD9IR5-120">
          <mxGeometry relative="1" as="geometry" />
        </mxCell>
        <mxCell id="ASO6ONYbp6WQh1iD9IR5-124" style="edgeStyle=orthogonalEdgeStyle;curved=1;rounded=0;orthogonalLoop=1;jettySize=auto;html=1;exitX=0.5;exitY=1;exitDx=0;exitDy=0;entryX=0;entryY=0.5;entryDx=0;entryDy=0;fontSize=10;" edge="1" parent="1" source="ASO6ONYbp6WQh1iD9IR5-125" target="ASO6ONYbp6WQh1iD9IR5-117">
          <mxGeometry relative="1" as="geometry" />
        </mxCell>
        <mxCell id="ASO6ONYbp6WQh1iD9IR5-125" value="" style="shape=partialRectangle;whiteSpace=wrap;html=1;left=0;right=0;fillColor=none;fontSize=24;" vertex="1" parent="1">
          <mxGeometry x="1211.25" y="1596.33" width="97.5" height="28" as="geometry" />
        </mxCell>
        <mxCell id="ASO6ONYbp6WQh1iD9IR5-126" value="INFO&lt;br&gt;CITACION" style="edgeLabel;html=1;align=center;verticalAlign=middle;resizable=0;points=[];" connectable="0" vertex="1" parent="1">
          <mxGeometry x="1265" y="1552.38" as="geometry" />
        </mxCell>
        <mxCell id="ASO6ONYbp6WQh1iD9IR5-127" value="" style="group" connectable="0" vertex="1" parent="1">
          <mxGeometry x="1330" y="1622.38" width="110" height="30" as="geometry" />
        </mxCell>
        <mxCell id="ASO6ONYbp6WQh1iD9IR5-128" value="" style="shape=partialRectangle;whiteSpace=wrap;html=1;left=0;right=0;fillColor=none;fontSize=24;" vertex="1" parent="ASO6ONYbp6WQh1iD9IR5-127">
          <mxGeometry x="11" width="88" height="30" as="geometry" />
        </mxCell>
        <mxCell id="ASO6ONYbp6WQh1iD9IR5-129" value="ACUDIENTE" style="text;html=1;strokeColor=none;fillColor=none;align=center;verticalAlign=middle;whiteSpace=wrap;rounded=0;" vertex="1" parent="ASO6ONYbp6WQh1iD9IR5-127">
          <mxGeometry y="7.5" width="110.00000000000003" height="15" as="geometry" />
        </mxCell>
        <mxCell id="ASO6ONYbp6WQh1iD9IR5-130" style="edgeStyle=orthogonalEdgeStyle;curved=1;rounded=0;orthogonalLoop=1;jettySize=auto;html=1;exitX=0.5;exitY=0;exitDx=0;exitDy=0;entryX=0.5;entryY=1;entryDx=0;entryDy=0;fontSize=10;" edge="1" parent="1" source="ASO6ONYbp6WQh1iD9IR5-128" target="ASO6ONYbp6WQh1iD9IR5-120">
          <mxGeometry relative="1" as="geometry" />
        </mxCell>
        <mxCell id="ASO6ONYbp6WQh1iD9IR5-131" value="INFO&lt;br&gt;ACUDIENTE" style="edgeLabel;html=1;align=center;verticalAlign=middle;resizable=0;points=[];" connectable="0" vertex="1" parent="1">
          <mxGeometry x="1380" y="1582.38" as="geometry" />
        </mxCell>
        <mxCell id="ASO6ONYbp6WQh1iD9IR5-132" value="" style="group" connectable="0" vertex="1" parent="1">
          <mxGeometry x="1450" y="1602.38" width="110" height="30" as="geometry" />
        </mxCell>
        <mxCell id="ASO6ONYbp6WQh1iD9IR5-133" value="" style="shape=partialRectangle;whiteSpace=wrap;html=1;left=0;right=0;fillColor=none;fontSize=24;" vertex="1" parent="ASO6ONYbp6WQh1iD9IR5-132">
          <mxGeometry x="11" width="88" height="30" as="geometry" />
        </mxCell>
        <mxCell id="ASO6ONYbp6WQh1iD9IR5-134" value="PERSONAL" style="text;html=1;strokeColor=none;fillColor=none;align=center;verticalAlign=middle;whiteSpace=wrap;rounded=0;" vertex="1" parent="ASO6ONYbp6WQh1iD9IR5-132">
          <mxGeometry y="7.5" width="110.00000000000001" height="15" as="geometry" />
        </mxCell>
        <mxCell id="ASO6ONYbp6WQh1iD9IR5-135" style="edgeStyle=orthogonalEdgeStyle;curved=1;rounded=0;orthogonalLoop=1;jettySize=auto;html=1;exitX=0.5;exitY=0;exitDx=0;exitDy=0;entryX=1;entryY=0.5;entryDx=0;entryDy=0;fontSize=10;" edge="1" parent="1" source="ASO6ONYbp6WQh1iD9IR5-133" target="ASO6ONYbp6WQh1iD9IR5-120">
          <mxGeometry relative="1" as="geometry" />
        </mxCell>
        <mxCell id="ASO6ONYbp6WQh1iD9IR5-136" value="INFO &lt;br&gt;PERSONAL" style="edgeLabel;html=1;align=center;verticalAlign=middle;resizable=0;points=[];" connectable="0" vertex="1" parent="1">
          <mxGeometry x="1504.9999999999998" y="1532.38" as="geometry">
            <mxPoint x="-9" y="-1" as="offset" />
          </mxGeometry>
        </mxCell>
        <mxCell id="ASO6ONYbp6WQh1iD9IR5-137" style="edgeStyle=orthogonalEdgeStyle;curved=1;rounded=0;orthogonalLoop=1;jettySize=auto;html=1;exitX=0.5;exitY=1;exitDx=0;exitDy=0;entryX=0.5;entryY=0;entryDx=0;entryDy=0;fontSize=10;" edge="1" parent="1" source="ASO6ONYbp6WQh1iD9IR5-128" target="ASO6ONYbp6WQh1iD9IR5-117">
          <mxGeometry relative="1" as="geometry" />
        </mxCell>
        <mxCell id="ASO6ONYbp6WQh1iD9IR5-138" style="edgeStyle=orthogonalEdgeStyle;curved=1;rounded=0;orthogonalLoop=1;jettySize=auto;html=1;exitX=0.5;exitY=1;exitDx=0;exitDy=0;entryX=1;entryY=0.5;entryDx=0;entryDy=0;fontSize=10;" edge="1" parent="1" source="ASO6ONYbp6WQh1iD9IR5-133" target="ASO6ONYbp6WQh1iD9IR5-117">
          <mxGeometry relative="1" as="geometry" />
        </mxCell>
        <mxCell id="ASO6ONYbp6WQh1iD9IR5-139" value="INFO&lt;br&gt;CITACION" style="edgeLabel;html=1;align=center;verticalAlign=middle;resizable=0;points=[];" connectable="0" vertex="1" parent="1">
          <mxGeometry x="1265" y="1704.13" as="geometry" />
        </mxCell>
        <mxCell id="ASO6ONYbp6WQh1iD9IR5-140" value="INFO&lt;br&gt;ACUDIENTE" style="edgeLabel;html=1;align=center;verticalAlign=middle;resizable=0;points=[];" connectable="0" vertex="1" parent="1">
          <mxGeometry x="1390" y="1704.13" as="geometry" />
        </mxCell>
        <mxCell id="ASO6ONYbp6WQh1iD9IR5-141" value="INFO &lt;br&gt;PERSONAL" style="edgeLabel;html=1;align=center;verticalAlign=middle;resizable=0;points=[];" connectable="0" vertex="1" parent="1">
          <mxGeometry x="1509.9999999999998" y="1672.38" as="geometry">
            <mxPoint x="-9" y="-1" as="offset" />
          </mxGeometry>
        </mxCell>
        <mxCell id="ASO6ONYbp6WQh1iD9IR5-145" style="edgeStyle=orthogonalEdgeStyle;curved=1;rounded=0;orthogonalLoop=1;jettySize=auto;html=1;exitX=0.5;exitY=1;exitDx=0;exitDy=0;fontSize=10;" edge="1" parent="1" source="ASO6ONYbp6WQh1iD9IR5-117" target="ASO6ONYbp6WQh1iD9IR5-125">
          <mxGeometry relative="1" as="geometry">
            <Array as="points">
              <mxPoint x="1385" y="1862" />
              <mxPoint x="1220" y="1862" />
            </Array>
          </mxGeometry>
        </mxCell>
        <mxCell id="ASO6ONYbp6WQh1iD9IR5-146" value="CITACIÓN&lt;br&gt;MODIFICADA" style="edgeLabel;html=1;align=center;verticalAlign=middle;resizable=0;points=[];fontSize=10;" connectable="0" vertex="1" parent="ASO6ONYbp6WQh1iD9IR5-145">
          <mxGeometry x="-0.0164" y="38" relative="1" as="geometry">
            <mxPoint x="43" y="-70" as="offset" />
          </mxGeometry>
        </mxCell>
        <mxCell id="ASO6ONYbp6WQh1iD9IR5-149" style="edgeStyle=orthogonalEdgeStyle;curved=1;rounded=0;orthogonalLoop=1;jettySize=auto;html=1;fontSize=10;exitX=0;exitY=0.25;exitDx=0;exitDy=0;" edge="1" parent="1" source="ASO6ONYbp6WQh1iD9IR5-122" target="ASO6ONYbp6WQh1iD9IR5-114">
          <mxGeometry relative="1" as="geometry">
            <mxPoint x="903" y="1627.3636363636363" as="sourcePoint" />
          </mxGeometry>
        </mxCell>
        <mxCell id="ASO6ONYbp6WQh1iD9IR5-150" value="INFO&lt;br&gt;CITACIÓN" style="edgeLabel;html=1;align=center;verticalAlign=middle;resizable=0;points=[];fontSize=10;" connectable="0" vertex="1" parent="ASO6ONYbp6WQh1iD9IR5-149">
          <mxGeometry x="-0.3405" y="1" relative="1" as="geometry">
            <mxPoint x="-28" y="2" as="offset" />
          </mxGeometry>
        </mxCell>
        <mxCell id="ASO6ONYbp6WQh1iD9IR5-151" style="edgeStyle=orthogonalEdgeStyle;curved=1;rounded=0;orthogonalLoop=1;jettySize=auto;html=1;exitX=0.5;exitY=0;exitDx=0;exitDy=0;entryX=0.25;entryY=0;entryDx=0;entryDy=0;fontSize=10;" edge="1" parent="1" source="ASO6ONYbp6WQh1iD9IR5-114" target="ASO6ONYbp6WQh1iD9IR5-125">
          <mxGeometry relative="1" as="geometry">
            <mxPoint x="870" y="1612.3799999999999" as="targetPoint" />
          </mxGeometry>
        </mxCell>
        <mxCell id="ASO6ONYbp6WQh1iD9IR5-152" value="CITACIÓN&lt;br&gt;ELIMINADA" style="edgeLabel;html=1;align=center;verticalAlign=middle;resizable=0;points=[];fontSize=10;" connectable="0" vertex="1" parent="ASO6ONYbp6WQh1iD9IR5-151">
          <mxGeometry x="-0.0588" y="6" relative="1" as="geometry">
            <mxPoint x="-10" y="6" as="offset" />
          </mxGeometry>
        </mxCell>
        <mxCell id="7hv6oszFaFQT4d_ed0gU-1" style="edgeStyle=none;rounded=0;orthogonalLoop=1;jettySize=auto;html=1;fontSize=9;entryX=0.006;entryY=0.611;entryDx=0;entryDy=0;entryPerimeter=0;exitX=1.011;exitY=0.62;exitDx=0;exitDy=0;exitPerimeter=0;" edge="1" parent="1" source="CnbhZ-RmkQytlQboRpyD-25" target="FWfu6WNcgX2FTxLPgsbS-2">
          <mxGeometry relative="1" as="geometry">
            <mxPoint x="240.19999999999993" y="278.0360800000001" as="sourcePoint" />
            <mxPoint x="470" y="278" as="targetPoint" />
          </mxGeometry>
        </mxCell>
        <mxCell id="7hv6oszFaFQT4d_ed0gU-2" value="&lt;font style=&quot;vertical-align: inherit;&quot;&gt;&lt;font style=&quot;vertical-align: inherit;&quot;&gt;&lt;font style=&quot;vertical-align: inherit;&quot;&gt;&lt;font style=&quot;vertical-align: inherit;&quot;&gt;CREAR EVENTO&lt;/font&gt;&lt;/font&gt;&lt;/font&gt;&lt;/font&gt;" style="edgeLabel;html=1;align=center;verticalAlign=middle;resizable=0;points=[];fontSize=11;" connectable="0" vertex="1" parent="7hv6oszFaFQT4d_ed0gU-1">
          <mxGeometry x="-0.2069" y="-1" relative="1" as="geometry">
            <mxPoint x="10" y="-1" as="offset" />
          </mxGeometry>
        </mxCell>
        <mxCell id="7hv6oszFaFQT4d_ed0gU-3" style="edgeStyle=none;rounded=0;orthogonalLoop=1;jettySize=auto;html=1;fontSize=9;exitX=1.016;exitY=0.865;exitDx=0;exitDy=0;entryX=0.091;entryY=0.785;entryDx=0;entryDy=0;entryPerimeter=0;exitPerimeter=0;" edge="1" parent="1" source="CnbhZ-RmkQytlQboRpyD-25" target="FWfu6WNcgX2FTxLPgsbS-2">
          <mxGeometry relative="1" as="geometry">
            <mxPoint x="240.80000000000007" y="297.46112000000005" as="sourcePoint" />
            <mxPoint x="490" y="297" as="targetPoint" />
          </mxGeometry>
        </mxCell>
        <mxCell id="7hv6oszFaFQT4d_ed0gU-4" value="&lt;font style=&quot;vertical-align: inherit;&quot;&gt;&lt;font style=&quot;vertical-align: inherit;&quot;&gt;&lt;font style=&quot;vertical-align: inherit;&quot;&gt;&lt;font style=&quot;vertical-align: inherit;&quot;&gt;&lt;font style=&quot;vertical-align: inherit;&quot;&gt;&lt;font style=&quot;vertical-align: inherit;&quot;&gt;CREAR CITA&lt;/font&gt;&lt;/font&gt;&lt;/font&gt;&lt;/font&gt;&lt;/font&gt;&lt;/font&gt;" style="edgeLabel;html=1;align=center;verticalAlign=middle;resizable=0;points=[];fontSize=11;" connectable="0" vertex="1" parent="7hv6oszFaFQT4d_ed0gU-3">
          <mxGeometry x="-0.2069" y="-1" relative="1" as="geometry">
            <mxPoint x="10" y="-1" as="offset" />
          </mxGeometry>
        </mxCell>
        <mxCell id="7hv6oszFaFQT4d_ed0gU-5" style="edgeStyle=none;rounded=0;orthogonalLoop=1;jettySize=auto;html=1;fontSize=9;exitX=0.999;exitY=0.428;exitDx=0;exitDy=0;entryX=0;entryY=0.5;entryDx=0;entryDy=0;exitPerimeter=0;" edge="1" parent="1" source="FWfu6WNcgX2FTxLPgsbS-2" target="xIkOduNl5AUU66lp3AHa-24">
          <mxGeometry relative="1" as="geometry">
            <mxPoint x="798.9999999999998" y="259.49" as="targetPoint" />
            <mxPoint x="629.6800000000001" y="256.99739999999997" as="sourcePoint" />
          </mxGeometry>
        </mxCell>
        <mxCell id="7hv6oszFaFQT4d_ed0gU-6" value="&lt;font style=&quot;vertical-align: inherit;&quot;&gt;&lt;font style=&quot;vertical-align: inherit;&quot;&gt;INFORMACION CUPOS&lt;/font&gt;&lt;/font&gt;" style="edgeLabel;html=1;align=center;verticalAlign=middle;resizable=0;points=[];fontSize=11;" connectable="0" vertex="1" parent="7hv6oszFaFQT4d_ed0gU-5">
          <mxGeometry x="-0.2448" y="-1" relative="1" as="geometry">
            <mxPoint x="19" y="-1" as="offset" />
          </mxGeometry>
        </mxCell>
        <mxCell id="7hv6oszFaFQT4d_ed0gU-7" style="edgeStyle=none;rounded=0;orthogonalLoop=1;jettySize=auto;html=1;fontSize=9;exitX=0.993;exitY=0.622;exitDx=0;exitDy=0;exitPerimeter=0;entryX=0;entryY=0.75;entryDx=0;entryDy=0;" edge="1" parent="1" source="FWfu6WNcgX2FTxLPgsbS-2" target="xIkOduNl5AUU66lp3AHa-24">
          <mxGeometry relative="1" as="geometry">
            <mxPoint x="790" y="270" as="targetPoint" />
            <mxPoint x="620.6800000000001" y="277.50739999999996" as="sourcePoint" />
          </mxGeometry>
        </mxCell>
        <mxCell id="7hv6oszFaFQT4d_ed0gU-8" value="&lt;font style=&quot;vertical-align: inherit;&quot;&gt;&lt;font style=&quot;vertical-align: inherit;&quot;&gt;&lt;font style=&quot;vertical-align: inherit;&quot;&gt;&lt;font style=&quot;vertical-align: inherit;&quot;&gt;INFORMACION EVENTO&lt;/font&gt;&lt;/font&gt;&lt;/font&gt;&lt;/font&gt;" style="edgeLabel;html=1;align=center;verticalAlign=middle;resizable=0;points=[];fontSize=11;" connectable="0" vertex="1" parent="7hv6oszFaFQT4d_ed0gU-7">
          <mxGeometry x="-0.2448" y="-1" relative="1" as="geometry">
            <mxPoint x="20" y="-1" as="offset" />
          </mxGeometry>
        </mxCell>
        <mxCell id="7hv6oszFaFQT4d_ed0gU-11" value="" style="group" connectable="0" vertex="1" parent="1">
          <mxGeometry x="1060" y="235.50000000000003" width="110" height="30" as="geometry" />
        </mxCell>
        <mxCell id="7hv6oszFaFQT4d_ed0gU-12" value="" style="shape=partialRectangle;whiteSpace=wrap;html=1;left=0;right=0;fillColor=none;fontSize=24;" vertex="1" parent="7hv6oszFaFQT4d_ed0gU-11">
          <mxGeometry x="10" y="-1" width="88" height="30" as="geometry" />
        </mxCell>
        <mxCell id="7hv6oszFaFQT4d_ed0gU-15" style="edgeStyle=orthogonalEdgeStyle;rounded=0;orthogonalLoop=1;jettySize=auto;html=1;entryX=0.058;entryY=0.275;entryDx=0;entryDy=0;entryPerimeter=0;curved=1;" edge="1" parent="1" source="7hv6oszFaFQT4d_ed0gU-13" target="CnbhZ-RmkQytlQboRpyD-8">
          <mxGeometry relative="1" as="geometry" />
        </mxCell>
        <mxCell id="7hv6oszFaFQT4d_ed0gU-16" value="&lt;font style=&quot;vertical-align: inherit;&quot;&gt;&lt;font style=&quot;vertical-align: inherit;&quot;&gt;INFO&lt;br&gt;ACUDIENTE&lt;br&gt;&lt;/font&gt;&lt;/font&gt;" style="edgeLabel;html=1;align=center;verticalAlign=middle;resizable=0;points=[];" connectable="0" vertex="1" parent="7hv6oszFaFQT4d_ed0gU-15">
          <mxGeometry x="0.2511" y="5" relative="1" as="geometry">
            <mxPoint x="-41" y="13" as="offset" />
          </mxGeometry>
        </mxCell>
        <mxCell id="7hv6oszFaFQT4d_ed0gU-13" value="ACUDIENTE" style="text;html=1;strokeColor=none;fillColor=none;align=center;verticalAlign=middle;whiteSpace=wrap;rounded=0;" vertex="1" parent="1">
          <mxGeometry x="1059" y="241.03" width="110.00000000000003" height="15" as="geometry" />
        </mxCell>
        <mxCell id="7hv6oszFaFQT4d_ed0gU-18" style="edgeStyle=orthogonalEdgeStyle;curved=1;rounded=0;orthogonalLoop=1;jettySize=auto;html=1;entryX=0.5;entryY=1;entryDx=0;entryDy=0;exitX=0;exitY=0.5;exitDx=0;exitDy=0;" edge="1" parent="1" source="CnbhZ-RmkQytlQboRpyD-8" target="7hv6oszFaFQT4d_ed0gU-12">
          <mxGeometry relative="1" as="geometry">
            <Array as="points">
              <mxPoint x="1290" y="330" />
              <mxPoint x="1114" y="330" />
            </Array>
          </mxGeometry>
        </mxCell>
        <mxCell id="7hv6oszFaFQT4d_ed0gU-20" value="&lt;font style=&quot;vertical-align: inherit;&quot;&gt;&lt;font style=&quot;vertical-align: inherit;&quot;&gt;&lt;font style=&quot;vertical-align: inherit;&quot;&gt;&lt;font style=&quot;vertical-align: inherit;&quot;&gt;CUPOS&lt;/font&gt;&lt;/font&gt;&lt;/font&gt;&lt;/font&gt;" style="shape=partialRectangle;whiteSpace=wrap;html=1;left=0;right=0;fillColor=none;fontSize=11;" vertex="1" parent="1">
          <mxGeometry x="1991.3999999999999" y="215.24" width="60" height="28" as="geometry" />
        </mxCell>
        <mxCell id="HS66bA9COVbjvonR8Qez-9" style="edgeStyle=orthogonalEdgeStyle;curved=1;rounded=0;orthogonalLoop=1;jettySize=auto;html=1;exitX=0;exitY=1;exitDx=0;exitDy=0;entryX=1;entryY=0.5;entryDx=0;entryDy=0;" edge="1" parent="1" source="7hv6oszFaFQT4d_ed0gU-21" target="7hv6oszFaFQT4d_ed0gU-36">
          <mxGeometry relative="1" as="geometry" />
        </mxCell>
        <mxCell id="HS66bA9COVbjvonR8Qez-14" value="SOLICITUD&lt;br&gt;CUPOS" style="edgeLabel;html=1;align=center;verticalAlign=middle;resizable=0;points=[];" connectable="0" vertex="1" parent="HS66bA9COVbjvonR8Qez-9">
          <mxGeometry x="0.027" y="-6" relative="1" as="geometry">
            <mxPoint x="23" y="2" as="offset" />
          </mxGeometry>
        </mxCell>
        <mxCell id="z8-KbePBWn15m4s615-u-7" style="edgeStyle=orthogonalEdgeStyle;rounded=0;orthogonalLoop=1;jettySize=auto;html=1;exitX=1;exitY=0.5;exitDx=0;exitDy=0;entryX=1;entryY=0.75;entryDx=0;entryDy=0;curved=1;" edge="1" parent="1" source="z8-KbePBWn15m4s615-u-8" target="z8-KbePBWn15m4s615-u-3">
          <mxGeometry relative="1" as="geometry" />
        </mxCell>
        <mxCell id="7hv6oszFaFQT4d_ed0gU-21" value="&lt;font style=&quot;vertical-align: inherit;&quot;&gt;&lt;font style=&quot;vertical-align: inherit;&quot;&gt;SOLICITUD CUPOS&lt;br&gt;&lt;/font&gt;&lt;/font&gt;" style="ellipse;whiteSpace=wrap;html=1;fontStyle=0" vertex="1" parent="1">
          <mxGeometry x="339.5" y="1372.42" width="120" height="80" as="geometry" />
        </mxCell>
        <mxCell id="7hv6oszFaFQT4d_ed0gU-22" value="&lt;font style=&quot;vertical-align: inherit;&quot;&gt;&lt;font style=&quot;vertical-align: inherit;&quot;&gt;2.1&lt;/font&gt;&lt;/font&gt;" style="text;html=1;strokeColor=none;fillColor=none;align=center;verticalAlign=middle;whiteSpace=wrap;rounded=0;" vertex="1" parent="1">
          <mxGeometry x="383.5" y="1382.42" width="30" height="10" as="geometry" />
        </mxCell>
        <mxCell id="7hv6oszFaFQT4d_ed0gU-37" value="&lt;font style=&quot;vertical-align: inherit;&quot;&gt;&lt;font style=&quot;vertical-align: inherit;&quot;&gt;CUPOS&lt;/font&gt;&lt;/font&gt;" style="text;html=1;strokeColor=none;fillColor=none;align=center;verticalAlign=middle;whiteSpace=wrap;rounded=0;" vertex="1" parent="1">
          <mxGeometry x="120" y="1389.92" width="80" height="15" as="geometry" />
        </mxCell>
        <mxCell id="7hv6oszFaFQT4d_ed0gU-36" value="" style="shape=partialRectangle;whiteSpace=wrap;html=1;left=0;right=0;fillColor=none;fontSize=24;" vertex="1" parent="1">
          <mxGeometry x="131" y="1382.42" width="58" height="30" as="geometry" />
        </mxCell>
        <mxCell id="HS66bA9COVbjvonR8Qez-10" style="edgeStyle=orthogonalEdgeStyle;curved=1;rounded=0;orthogonalLoop=1;jettySize=auto;html=1;exitX=0;exitY=0.75;exitDx=0;exitDy=0;entryX=0.5;entryY=1;entryDx=0;entryDy=0;" edge="1" parent="1" source="ASO6ONYbp6WQh1iD9IR5-10" target="7hv6oszFaFQT4d_ed0gU-21">
          <mxGeometry relative="1" as="geometry" />
        </mxCell>
        <mxCell id="HS66bA9COVbjvonR8Qez-11" value="INFO&lt;br&gt;ACUDIENTE" style="edgeLabel;html=1;align=center;verticalAlign=middle;resizable=0;points=[];fontSize=10;" connectable="0" vertex="1" parent="1">
          <mxGeometry x="299.4999999999997" y="1457.42" as="geometry">
            <mxPoint x="167" y="15" as="offset" />
          </mxGeometry>
        </mxCell>
        <mxCell id="HS66bA9COVbjvonR8Qez-13" value="INFO&lt;br style=&quot;border-color: var(--border-color); font-size: 12px;&quot;&gt;&lt;span style=&quot;font-size: 12px;&quot;&gt;ESTUDIANTE&lt;/span&gt;" style="edgeLabel;html=1;align=center;verticalAlign=middle;resizable=0;points=[];" connectable="0" vertex="1" parent="1">
          <mxGeometry x="459.5000000000001" y="1322.42" as="geometry">
            <mxPoint x="-6" y="-1" as="offset" />
          </mxGeometry>
        </mxCell>
        <mxCell id="z8-KbePBWn15m4s615-u-1" value="" style="group" connectable="0" vertex="1" parent="1">
          <mxGeometry x="730" y="1250" width="110" height="30" as="geometry" />
        </mxCell>
        <mxCell id="z8-KbePBWn15m4s615-u-2" value="" style="shape=partialRectangle;whiteSpace=wrap;html=1;left=0;right=0;fillColor=none;fontSize=24;" vertex="1" parent="z8-KbePBWn15m4s615-u-1">
          <mxGeometry x="11" width="88" height="30" as="geometry" />
        </mxCell>
        <mxCell id="z8-KbePBWn15m4s615-u-3" value="CITACION" style="text;html=1;strokeColor=none;fillColor=none;align=center;verticalAlign=middle;whiteSpace=wrap;rounded=0;" vertex="1" parent="z8-KbePBWn15m4s615-u-1">
          <mxGeometry y="7.5" width="110.00000000000001" height="15" as="geometry" />
        </mxCell>
        <mxCell id="z8-KbePBWn15m4s615-u-5" value="INFO &lt;br&gt;CITACIONES" style="edgeLabel;html=1;align=center;verticalAlign=middle;resizable=0;points=[];rotation=0;" connectable="0" vertex="1" parent="1">
          <mxGeometry x="850.001800601344" y="1322.4177083462941" as="geometry">
            <mxPoint x="2" y="5" as="offset" />
          </mxGeometry>
        </mxCell>
        <mxCell id="z8-KbePBWn15m4s615-u-8" value="&lt;font style=&quot;vertical-align: inherit;&quot;&gt;&lt;font style=&quot;vertical-align: inherit;&quot;&gt;CREAR CITACION&amp;nbsp;&lt;br&gt;&lt;/font&gt;&lt;/font&gt;" style="ellipse;whiteSpace=wrap;html=1;fontStyle=0" vertex="1" parent="1">
          <mxGeometry x="690" y="1347.42" width="120" height="80" as="geometry" />
        </mxCell>
        <mxCell id="z8-KbePBWn15m4s615-u-9" value="&lt;font style=&quot;vertical-align: inherit;&quot;&gt;&lt;font style=&quot;vertical-align: inherit;&quot;&gt;2.2&lt;/font&gt;&lt;/font&gt;" style="text;html=1;strokeColor=none;fillColor=none;align=center;verticalAlign=middle;whiteSpace=wrap;rounded=0;" vertex="1" parent="1">
          <mxGeometry x="732.5" y="1355" width="30" height="10" as="geometry" />
        </mxCell>
        <mxCell id="z8-KbePBWn15m4s615-u-11" value="INFO&lt;br style=&quot;border-color: var(--border-color); font-size: 12px;&quot;&gt;&lt;span style=&quot;font-size: 12px;&quot;&gt;ESTUDIANTE&lt;/span&gt;" style="edgeLabel;html=1;align=center;verticalAlign=middle;resizable=0;points=[];" connectable="0" vertex="1" parent="1">
          <mxGeometry x="670.0000000000001" y="1282.38" as="geometry">
            <mxPoint x="-6" y="-1" as="offset" />
          </mxGeometry>
        </mxCell>
        <mxCell id="z8-KbePBWn15m4s615-u-12" style="edgeStyle=orthogonalEdgeStyle;rounded=0;orthogonalLoop=1;jettySize=auto;html=1;exitX=1;exitY=0.5;exitDx=0;exitDy=0;entryX=0.5;entryY=1;entryDx=0;entryDy=0;curved=1;" edge="1" parent="1" source="ASO6ONYbp6WQh1iD9IR5-9" target="z8-KbePBWn15m4s615-u-8">
          <mxGeometry relative="1" as="geometry" />
        </mxCell>
        <mxCell id="z8-KbePBWn15m4s615-u-13" value="INFO&lt;br&gt;ACUDIENTE" style="edgeLabel;html=1;align=center;verticalAlign=middle;resizable=0;points=[];fontSize=10;" connectable="0" vertex="1" parent="1">
          <mxGeometry x="529.4999999999998" y="1440" as="geometry">
            <mxPoint x="167" y="15" as="offset" />
          </mxGeometry>
        </mxCell>
      </root>
    </mxGraphModel>
  </diagram>
</mxfile>
